<?xml version="1.0" encoding="UTF-8" standalone="no"?>
<!DOCTYPE svg PUBLIC "-//W3C//DTD SVG 1.1//EN" "http://www.w3.org/Graphics/SVG/1.1/DTD/svg11.dtd">
<svg xmlns="http://www.w3.org/2000/svg" version="1.1" viewBox="0.00 0.00 740.00 738.00" width="740.00" height="738.00">
<g stroke-width="2.00" fill="none" stroke-linecap="butt">
<path stroke="#808080" vector-effect="non-scaling-stroke" d="
  M 607.3496 344.3639
  A 238.42 238.31 -0.1 0 0 368.5141 106.4704
  A 238.42 238.31 -0.1 0 0 130.5104 345.1961
  A 238.42 238.31 -0.1 0 0 369.3459 583.0896
  A 238.42 238.31 -0.1 0 0 607.3496 344.3639"
/>
<path stroke="#808080" vector-effect="non-scaling-stroke" d="
  M 602.7811 348.4638
  A 233.89 233.78 0.9 0 0 372.5921 111.0388
  A 233.89 233.78 0.9 0 0 135.0589 341.1162
  A 233.89 233.78 0.9 0 0 365.2479 578.5412
  A 233.89 233.78 0.9 0 0 602.7811 348.4638"
/>
<path stroke="#ffdc8e" vector-effect="non-scaling-stroke" d="
  M 595.56 344.84
  A 226.56 226.56 0.0 0 0 369.00 118.28
  A 226.56 226.56 0.0 0 0 142.44 344.84
  A 226.56 226.56 0.0 0 0 369.00 571.40
  A 226.56 226.56 0.0 0 0 595.56 344.84"
/>
<path stroke="#ffdc8e" vector-effect="non-scaling-stroke" d="
  M 382.01 164.43
  A 25.85 25.85 0.0 0 0 356.16 138.58
  A 25.85 25.85 0.0 0 0 330.31 164.43
  A 25.85 25.85 0.0 0 0 356.16 190.28
  A 25.85 25.85 0.0 0 0 382.01 164.43"
/>
<path stroke="#ffdc8e" vector-effect="non-scaling-stroke" d="
  M 413.44 194.95
  Q 417.32 195.77 420.76 195.37
  A 1.65 1.65 0.0 0 0 422.20 194.01
  L 423.13 188.44
  Q 423.30 187.44 422.33 187.71
  C 413.81 190.05 405.21 185.19 402.14 177.17
  C 395.52 159.83 414.04 143.21 429.97 154.89
  Q 430.89 155.56 431.27 154.49
  Q 432.23 151.76 432.64 148.79
  Q 432.82 147.46 431.60 146.92
  Q 425.60 144.27 420.76 143.87
  C 400.38 142.16 386.77 163.36 395.62 181.44
  Q 400.95 192.31 413.44 194.95"
/>
<path stroke="#ffdc8e" vector-effect="non-scaling-stroke" d="
  M 312.44 169.47
  C 315.09 163.34 313.88 156.20 308.08 152.70
  C 302.72 149.49 298.13 150.06 292.12 152.48
  Q 284.83 155.42 278.35 157.99
  A 0.65 0.65 0.0 0 0 277.99 158.83
  L 295.69 204.26
  A 0.71 0.71 0.0 0 0 296.60 204.66
  Q 304.82 201.51 313.48 198.05
  Q 320.14 195.39 322.40 189.64
  C 325.52 181.76 321.67 172.41 312.96 170.48
  A 0.74 0.74 0.0 0 1 312.44 169.47"
/>
<path stroke="#ffdc8e" vector-effect="non-scaling-stroke" d="
  M 457.85 201.13
  A 2.72 2.66 -54.7 0 1 458.09 202.63
  Q 457.41 207.93 456.76 213.52
  A 1.64 1.64 0.0 0 0 457.59 215.13
  L 462.25 217.69
  Q 463.21 218.21 463.47 217.15
  C 464.14 214.50 464.22 211.67 464.53 208.91
  Q 467.22 185.61 469.52 164.45
  Q 469.64 163.31 468.74 164.02
  L 427.54 196.75
  Q 426.27 197.76 427.69 198.53
  L 431.97 200.85
  Q 433.24 201.53 434.34 200.61
  L 441.85 194.31
  A 3.25 3.25 0.0 0 1 445.62 194.01
  Q 450.94 197.22 457.06 200.32
  Q 457.60 200.59 457.85 201.13"
/>
<path stroke="#ffdc8e" vector-effect="non-scaling-stroke" d="
  M 268.90 199.03
  Q 268.40 199.25 267.86 199.13
  Q 249.90 195.17 232.79 191.27
  Q 228.86 190.38 225.93 194.79
  A 1.05 1.05 0.0 0 0 225.98 196.03
  L 255.50 233.33
  Q 256.19 234.20 257.08 233.53
  L 260.92 230.62
  A 1.03 1.03 0.0 0 0 261.10 229.15
  L 239.45 201.99
  Q 238.04 200.22 240.26 200.70
  Q 260.22 205.01 279.96 208.90
  Q 282.82 209.46 286.24 210.05
  Q 287.43 210.26 286.67 209.31
  L 257.06 172.01
  Q 255.82 170.45 254.29 171.71
  L 251.74 173.78
  Q 250.48 174.81 251.49 176.09
  L 269.07 198.35
  Q 269.43 198.80 268.90 199.03"
/>
<path stroke="#ffdc8e" vector-effect="non-scaling-stroke" d="
  M 475.66 229.67
  A 1.24 1.24 0.0 0 0 477.41 229.57
  L 504.56 199.29
  A 1.24 1.24 0.0 0 1 506.31 199.20
  L 513.63 205.83
  A 1.24 1.24 0.0 0 0 515.37 205.75
  L 518.59 202.27
  A 1.24 1.24 0.0 0 0 518.50 200.50
  L 496.26 180.73
  A 1.24 1.24 0.0 0 0 494.48 180.86
  L 491.57 184.36
  A 1.24 1.24 0.0 0 0 491.71 186.09
  L 499.12 192.53
  A 1.24 1.24 0.0 0 1 499.23 194.30
  L 471.97 224.67
  A 1.24 1.24 0.0 0 0 472.06 226.42
  L 475.66 229.67"
/>
<path stroke="#ffdc8e" vector-effect="non-scaling-stroke" d="
  M 509.02 344.83
  A 140.02 140.02 0.0 0 0 369.00 204.81
  A 140.02 140.02 0.0 0 0 228.98 344.83
  A 140.02 140.02 0.0 0 0 369.00 484.85
  A 140.02 140.02 0.0 0 0 509.02 344.83"
/>
<path stroke="#ffdc8e" vector-effect="non-scaling-stroke" d="
  M 531.20 228.61
  Q 530.87 229.06 530.43 229.36
  Q 513.02 241.38 497.22 252.22
  Q 496.43 252.76 496.96 253.56
  L 499.94 258.07
  A 0.98 0.98 0.0 0 0 501.31 258.34
  L 535.07 235.06
  A 1.27 1.27 0.0 0 1 536.85 235.41
  L 542.31 243.75
  Q 542.93 244.69 543.85 244.06
  L 548.01 241.24
  Q 548.93 240.62 548.30 239.70
  L 531.42 215.32
  A 1.38 1.38 0.0 0 0 529.51 214.96
  L 525.86 217.43
  Q 524.72 218.21 525.53 219.33
  L 531.21 227.22
  A 1.18 1.18 0.0 0 1 531.20 228.61"
/>
<path stroke="#ffdc8e" vector-effect="non-scaling-stroke" d="
  M 240.1808 258.2003
  A 25.98 25.70 26.2 0 0 228.2167 223.6705
  A 25.98 25.70 26.2 0 0 193.5592 235.2597
  A 25.98 25.70 26.2 0 0 205.5233 269.7895
  A 25.98 25.70 26.2 0 0 240.1808 258.2003"
/>
<path stroke="#ffdc8e" vector-effect="non-scaling-stroke" d="
  M 566.2701 282.0893
  A 26.03 25.66 -13.6 0 0 534.9363 263.2695
  A 26.03 25.66 -13.6 0 0 515.6699 294.3307
  A 26.03 25.66 -13.6 0 0 547.0037 313.1505
  A 26.03 25.66 -13.6 0 0 566.2701 282.0893"
/>
<path stroke="#ffdc8e" vector-effect="non-scaling-stroke" d="
  M 194.20 284.21
  C 189.83 275.77 178.42 275.34 172.58 282.36
  Q 170.30 285.10 169.10 290.08
  Q 167.30 297.61 164.83 305.04
  A 0.61 0.60 -72.8 0 0 165.24 305.82
  L 212.20 318.91
  A 1.01 1.01 0.0 0 0 213.45 318.21
  Q 215.48 310.81 218.10 301.45
  C 219.45 296.59 219.27 292.90 216.58 288.52
  C 212.28 281.53 202.57 279.78 195.88 284.61
  A 1.14 1.14 0.0 0 1 194.20 284.21"
/>
<path stroke="#ffdc8e" vector-effect="non-scaling-stroke" d="
  M 242.04 473.65
  L 243.46 471.95
  A 1.16 1.16 0.0 0 1 245.17 471.86
  L 248.70 475.36
  Q 249.26 475.91 250.00 475.67
  Q 250.31 475.56 250.43 475.33
  Q 251.00 474.28 250.14 473.45
  Q 248.08 471.45 245.99 469.41
  Q 244.17 467.63 242.51 469.46
  Q 237.88 474.61 233.18 479.78
  A 0.50 0.50 0.0 0 0 233.38 480.59
  L 233.66 480.69
  Q 234.63 481.05 235.36 480.32
  L 239.09 476.57
  A 0.95 0.95 0.0 0 1 240.45 476.57
  L 243.04 479.24
  Q 243.62 479.84 244.43 480.04
  Q 246.28 480.50 245.95 479.26
  Q 245.75 478.51 245.18 477.98
  L 242.14 475.19
  Q 241.35 474.47 242.04 473.65"
/>
<path stroke="#ffdc8e" vector-effect="non-scaling-stroke" d="
  M 494.99 478.35
  L 498.78 474.81
  Q 499.26 474.35 498.81 473.87
  L 498.54 473.59
  Q 497.77 472.76 496.92 473.51
  L 493.82 476.22
  Q 492.50 477.38 491.24 476.14
  L 491.00 475.90
  Q 489.75 474.66 491.03 473.44
  L 494.45 470.22
  A 0.79 0.78 60.7 0 0 494.66 469.45
  Q 494.50 468.84 493.92 468.58
  A 1.16 1.15 -54.7 0 0 492.66 468.80
  L 487.13 474.16
  A 0.72 0.71 46.4 0 0 487.11 475.17
  L 497.17 485.77
  A 0.93 0.92 -40.1 0 0 498.41 485.87
  Q 501.80 483.29 504.38 480.10
  A 0.88 0.87 25.3 0 0 503.87 478.69
  Q 503.13 478.55 502.52 479.07
  Q 500.79 480.54 499.25 482.28
  A 1.42 1.41 44.5 0 1 497.14 482.29
  L 494.93 479.87
  Q 494.21 479.08 494.99 478.35"
/>
<path stroke="#ffdc8e" vector-effect="non-scaling-stroke" d="
  M 482.56 481.33
  L 484.63 478.56
  A 0.40 0.40 0.0 0 0 484.47 477.96
  L 484.11 477.81
  Q 483.42 477.51 482.84 477.98
  L 475.94 483.46
  A 0.89 0.86 71.4 0 0 475.61 484.15
  Q 475.63 484.98 476.33 485.16
  Q 477.20 485.38 477.87 484.79
  Q 479.73 483.15 480.24 483.78
  Q 484.13 488.57 488.05 493.20
  Q 488.77 494.04 489.82 493.69
  Q 490.10 493.60 490.25 493.31
  Q 490.57 492.68 490.13 492.13
  L 482.58 482.74
  A 1.15 1.14 44.3 0 1 482.56 481.33"
/>
<path stroke="#ffdc8e" vector-effect="non-scaling-stroke" d="
  M 248.40 489.39
  L 250.66 486.69
  A 0.90 0.90 0.0 0 1 251.89 486.55
  L 256.17 489.71
  Q 256.80 490.18 257.29 489.56
  Q 257.45 489.35 257.52 489.09
  Q 257.80 488.03 256.93 487.37
  L 253.94 485.11
  Q 252.95 484.37 253.53 483.28
  L 254.05 482.32
  Q 254.81 480.90 256.12 481.85
  L 260.41 485.01
  A 0.84 0.83 -38.5 0 0 261.25 485.10
  Q 261.56 484.97 261.73 484.70
  Q 262.27 483.85 261.50 483.21
  L 256.10 478.67
  A 1.68 1.67 39.4 0 0 253.72 478.90
  L 245.23 489.51
  A 1.22 1.22 0.0 0 0 245.34 491.15
  Q 248.51 494.21 251.64 496.12
  A 0.92 0.92 0.0 0 0 252.29 496.25
  Q 252.80 496.16 252.94 495.82
  Q 253.29 494.98 252.61 494.37
  L 248.49 490.71
  A 0.95 0.94 -49.2 0 1 248.40 489.39"
/>
<path stroke="#ffdc8e" vector-effect="non-scaling-stroke" d="
  M 260.82 500.16
  Q 260.18 499.70 260.63 499.06
  Q 263.90 494.40 267.11 489.57
  Q 267.73 488.62 267.63 487.48
  Q 267.58 486.89 266.64 486.92
  A 0.97 0.95 -73.2 0 0 265.87 487.34
  L 257.22 499.90
  A 0.68 0.68 0.0 0 0 257.41 500.86
  L 263.79 505.04
  A 0.82 0.80 45.7 0 0 264.65 505.06
  Q 265.09 504.79 265.22 504.36
  Q 265.46 503.49 264.73 502.96
  L 260.82 500.16"
/>
<path stroke="#ffdc8e" vector-effect="non-scaling-stroke" d="
  M 468.57 491.45
  L 472.50 488.92
  Q 473.16 488.50 473.09 487.72
  Q 473.06 487.35 472.69 486.98
  A 1.08 1.08 0.0 0 0 471.33 486.85
  L 465.34 490.96
  Q 464.21 491.74 464.99 492.87
  L 473.12 504.64
  A 1.04 1.04 0.0 0 0 474.60 504.89
  L 481.45 499.85
  A 0.59 0.58 -23.8 0 0 481.68 499.27
  Q 481.58 498.72 481.20 498.59
  Q 480.18 498.24 479.28 498.74
  Q 477.40 499.79 475.60 501.24
  Q 474.26 502.32 473.38 500.85
  L 472.02 498.57
  Q 471.13 497.07 472.69 496.28
  Q 474.36 495.43 475.83 494.28
  Q 476.54 493.73 476.41 493.01
  A 1.12 1.11 -21.3 0 0 474.70 492.26
  L 470.87 494.73
  Q 469.74 495.47 468.93 494.38
  L 468.21 493.39
  Q 467.36 492.23 468.57 491.45"
/>
<path stroke="#ffdc8e" vector-effect="non-scaling-stroke" d="
  M 279.0541 496.0136
  A 1.12 1.12 0.0 0 0 278.6790 494.4748
  L 278.6448 494.4540
  A 1.12 1.12 0.0 0 0 277.1059 494.8291
  L 269.3859 507.5264
  A 1.12 1.12 0.0 0 0 269.7610 509.0652
  L 269.7952 509.0860
  A 1.12 1.12 0.0 0 0 271.3341 508.7109
  L 279.0541 496.0136"
/>
<path stroke="#ffdc8e" vector-effect="non-scaling-stroke" d="
  M 450.71 500.72
  Q 453.32 505.96 455.86 510.08
  C 459.12 515.38 468.62 511.17 465.89 505.22
  Q 463.85 500.76 460.62 495.52
  Q 460.01 494.52 458.87 494.81
  Q 458.70 494.85 458.57 494.95
  Q 457.80 495.54 458.28 496.38
  L 463.66 505.78
  Q 465.16 508.41 462.44 509.76
  L 461.94 510.00
  Q 459.73 511.10 458.33 509.06
  Q 455.43 504.83 452.90 499.95
  Q 452.42 499.00 451.36 499.05
  Q 450.81 499.08 450.62 499.94
  A 1.23 1.18 39.6 0 0 450.71 500.72"
/>
<path stroke="#ffdc8e" vector-effect="non-scaling-stroke" d="
  M 281.42 507.73
  C 282.32 503.12 288.22 501.11 291.53 504.57
  A 0.76 0.76 0.0 0 0 292.80 504.29
  C 294.59 499.02 278.06 497.93 278.67 509.97
  Q 278.95 515.32 285.52 517.24
  A 0.89 0.88 16.9 0 0 286.61 516.66
  L 286.73 516.27
  A 1.02 1.01 -72.2 0 0 286.08 514.99
  Q 280.37 513.09 281.42 507.73"
/>
<path stroke="#ffdc8e" vector-effect="non-scaling-stroke" d="
  M 447.50 519.70
  C 448.15 518.79 449.13 518.01 449.62 517.00
  C 453.08 509.94 447.49 502.22 439.67 504.78
  C 432.24 507.21 431.83 516.65 438.54 520.41
  C 440.12 521.30 442.11 520.99 443.88 521.18
  A 1.26 1.21 -11.7 0 1 444.80 521.76
  C 445.23 522.47 445.42 523.32 446.32 523.60
  Q 446.99 523.81 447.47 523.22
  A 0.81 0.80 -31.2 0 0 447.64 522.54
  L 447.28 520.69
  Q 447.18 520.15 447.50 519.70"
/>
<path stroke="#ffdc8e" vector-effect="non-scaling-stroke" d="
  M 299.6992 506.7878
  A 1.11 1.11 0.0 0 0 299.1265 505.3263
  L 299.0715 505.3023
  A 1.11 1.11 0.0 0 0 297.6099 505.8750
  L 291.6608 519.4922
  A 1.11 1.11 0.0 0 0 292.2335 520.9537
  L 292.2885 520.9777
  A 1.11 1.11 0.0 0 0 293.7501 520.4050
  L 299.6992 506.7878"
/>
<path stroke="#ffdc8e" vector-effect="non-scaling-stroke" d="
  M 304.69 508.97
  L 300.22 522.57
  A 1.11 1.11 0.0 0 0 300.92 523.97
  L 304.99 525.31
  A 8.31 8.20 18.2 0 0 315.45 520.12
  L 315.49 519.98
  A 8.31 8.20 18.2 0 0 310.16 509.60
  L 306.09 508.26
  A 1.11 1.11 0.0 0 0 304.69 508.97"
/>
<path stroke="#ffdc8e" vector-effect="non-scaling-stroke" d="
  M 424.52 523.68
  L 428.25 522.57
  Q 428.79 522.41 429.18 522.80
  L 431.03 524.60
  A 2.36 2.35 64.7 0 0 432.87 525.26
  L 433.39 525.21
  Q 434.68 525.10 433.83 524.12
  Q 428.47 517.95 423.58 512.14
  Q 423.33 511.85 422.97 511.81
  A 0.50 0.50 0.0 0 0 422.42 512.27
  L 421.25 527.85
  A 0.85 0.84 -88.4 0 0 422.10 528.76
  L 422.46 528.76
  Q 423.41 528.74 423.49 527.79
  L 423.77 524.59
  A 1.06 1.05 84.7 0 1 424.52 523.68"
/>
<path stroke="#ffdc8e" vector-effect="non-scaling-stroke" d="
  M 409.50 527.25
  Q 409.33 526.10 410.49 525.95
  Q 414.86 525.41 416.03 522.54
  Q 417.09 519.93 415.81 517.54
  C 413.75 513.68 408.44 515.01 405.01 516.23
  A 0.81 0.80 -15.1 0 0 404.48 517.14
  Q 405.92 524.59 408.11 531.60
  A 0.93 0.93 0.0 0 0 409.19 532.24
  L 409.56 532.17
  A 0.67 0.67 0.0 0 0 410.09 531.42
  L 409.50 527.25"
/>
<path stroke="#ffdc8e" vector-effect="non-scaling-stroke" d="
  M 323.06 526.45
  L 326.52 527.39
  A 1.29 1.27 89.9 0 1 327.43 528.31
  Q 327.82 529.77 328.25 531.29
  Q 328.51 532.18 329.35 532.54
  Q 329.73 532.70 330.16 532.34
  A 0.71 0.70 67.2 0 0 330.42 531.68
  L 328.11 515.77
  A 0.59 0.59 0.0 0 0 327.04 515.51
  L 317.60 528.59
  A 0.66 0.65 -36.7 0 0 317.51 529.17
  Q 317.73 529.83 318.10 529.83
  Q 319.20 529.82 319.90 528.92
  Q 320.74 527.84 321.65 526.86
  A 1.40 1.40 0.0 0 1 323.06 526.45"
/>
<path stroke="#ffdc8e" vector-effect="non-scaling-stroke" d="
  M 338.09 518.44
  L 336.07 532.43
  A 1.21 1.21 0.0 0 0 337.10 533.80
  L 341.26 534.40
  A 8.28 8.14 8.2 0 0 350.62 527.53
  L 350.66 527.25
  A 8.28 8.14 8.2 0 0 343.63 518.01
  L 339.46 517.41
  A 1.21 1.21 0.0 0 0 338.09 518.44"
/>
<path stroke="#ffdc8e" vector-effect="non-scaling-stroke" d="
  M 381.24 525.01
  Q 381.15 523.60 382.15 524.60
  L 391.49 534.01
  Q 392.83 535.36 392.66 533.47
  L 391.43 519.51
  A 1.05 1.04 -5.8 0 0 390.26 518.56
  L 389.95 518.60
  A 0.88 0.87 -7.9 0 0 389.19 519.60
  Q 389.81 523.52 389.77 527.10
  Q 389.74 529.18 388.41 527.58
  Q 384.96 523.44 381.76 520.74
  Q 378.05 517.61 378.57 522.43
  L 379.95 535.20
  Q 380.03 535.88 380.71 535.81
  L 381.22 535.77
  A 0.70 0.70 0.0 0 0 381.86 535.02
  L 381.24 525.01"
/>
<path stroke="#ffdc8e" vector-effect="non-scaling-stroke" d="
  M 366.53 522.52
  A 0.46 0.46 0.0 0 1 366.99 522.06
  L 373.47 522.16
  A 0.46 0.46 0.0 0 0 373.93 521.75
  L 374.07 520.40
  A 0.46 0.46 0.0 0 0 373.61 519.90
  L 364.51 519.85
  A 0.46 0.46 0.0 0 0 364.05 520.31
  L 364.10 536.10
  A 0.46 0.46 0.0 0 0 364.57 536.55
  L 373.37 536.25
  A 0.46 0.46 0.0 0 0 373.81 535.86
  L 374.02 534.46
  A 0.46 0.46 0.0 0 0 373.55 533.94
  L 366.97 534.12
  A 0.46 0.46 0.0 0 1 366.49 533.65
  L 366.54 528.92
  A 0.46 0.46 0.0 0 1 366.99 528.46
  L 373.22 528.34
  A 0.46 0.46 0.0 0 0 373.66 527.81
  L 373.46 526.58
  A 0.46 0.46 0.0 0 0 373.03 526.20
  L 367.02 525.96
  A 0.46 0.46 0.0 0 1 366.57 525.50
  L 366.53 522.52"
/>
<path stroke="#ffdc8e" vector-effect="non-scaling-stroke" d="
  M 357.9661 183.0637
  A 18.74 17.82 84.5 0 0 373.9080 162.7020
  A 18.74 17.82 84.5 0 0 354.3739 145.7563
  A 18.74 17.82 84.5 0 0 338.4320 166.1180
  A 18.74 17.82 84.5 0 0 357.9661 183.0637"
/>
<path stroke="#ffdc8e" vector-effect="non-scaling-stroke" d="
  M 287.28 162.67
  L 291.68 173.77
  A 1.18 1.18 0.0 0 0 293.21 174.44
  L 301.39 171.20
  A 7.74 6.85 -21.6 0 0 306.07 161.98
  L 305.85 161.42
  A 7.74 6.85 -21.6 0 0 296.13 157.90
  L 287.95 161.14
  A 1.18 1.18 0.0 0 0 287.28 162.67"
/>
<path stroke="#ffdc8e" vector-effect="non-scaling-stroke" d="
  M 294.85 181.99
  L 299.92 195.05
  A 1.31 1.31 0.0 0 0 301.61 195.79
  L 309.83 192.60
  A 9.23 8.25 -21.2 0 0 315.46 181.58
  L 315.41 181.46
  A 9.23 8.25 -21.2 0 0 303.82 177.11
  L 295.60 180.30
  A 1.31 1.31 0.0 0 0 294.85 181.99"
/>
<path stroke="#ffdc8e" vector-effect="non-scaling-stroke" d="
  M 449.67 188.07
  A 0.58 0.58 0.0 0 0 449.76 189.02
  L 458.50 193.81
  A 0.58 0.58 0.0 0 0 459.36 193.37
  L 461.05 179.90
  A 0.58 0.58 0.0 0 0 460.11 179.38
  L 449.67 188.07"
/>
<path stroke="#808080" vector-effect="non-scaling-stroke" d="
  M 501.89 344.79
  A 132.97 132.97 0.0 0 0 368.92 211.82
  A 132.97 132.97 0.0 0 0 235.95 344.79
  A 132.97 132.97 0.0 0 0 368.92 477.76
  A 132.97 132.97 0.0 0 0 501.89 344.79"
/>
<path stroke="#808080" vector-effect="non-scaling-stroke" d="
  M 491.67 344.78
  A 122.74 122.74 0.0 0 0 368.93 222.04
  A 122.74 122.74 0.0 0 0 246.19 344.78
  A 122.74 122.74 0.0 0 0 368.93 467.52
  A 122.74 122.74 0.0 0 0 491.67 344.78"
/>
<path stroke="#ffdc8e" vector-effect="non-scaling-stroke" d="
  M 232.9021 256.4253
  A 18.77 17.79 31.1 0 0 226.0191 231.4970
  A 18.77 17.79 31.1 0 0 200.7579 237.0347
  A 18.77 17.79 31.1 0 0 207.6409 261.9630
  A 18.77 17.79 31.1 0 0 232.9021 256.4253"
/>
<path stroke="#808080" vector-effect="non-scaling-stroke" d="
  M 344.29 256.83
  Q 358.54 257.01 373.50 256.95
  C 380.96 256.93 390.46 258.57 396.02 264.04
  C 396.71 264.71 397.71 265.17 398.67 265.18
  Q 407.75 265.24 415.70 265.19
  A 0.57 0.56 -14.3 0 0 416.20 264.36
  C 408.36 249.69 394.57 242.53 378.44 242.47
  Q 352.84 242.38 326.79 242.45
  Q 326.46 242.45 326.46 242.78
  L 326.46 446.97
  A 0.24 0.24 0.0 0 0 326.70 447.21
  Q 355.06 447.38 376.24 447.12
  C 395.75 446.88 413.43 438.60 423.24 421.24
  A 0.33 0.32 -75.0 0 0 422.96 420.75
  L 404.80 420.76
  A 2.95 2.94 22.6 0 0 402.73 421.61
  C 393.36 430.91 382.69 432.76 369.05 432.64
  Q 356.49 432.54 343.89 432.61
  A 0.34 0.33 90.0 0 1 343.56 432.27
  L 343.58 346.71
  A 0.51 0.50 -89.4 0 1 344.09 346.20
  Q 357.14 346.37 372.00 346.17
  Q 380.17 346.06 386.06 347.72
  Q 405.68 353.25 411.42 372.52
  C 413.98 381.11 414.09 391.73 412.55 400.76
  Q 412.36 401.92 413.53 401.81
  L 428.98 400.45
  A 1.50 1.49 0.2 0 0 430.34 399.11
  Q 431.52 387.66 430.18 376.87
  C 428.28 361.54 418.65 345.86 404.42 339.79
  Q 401.65 338.61 398.94 337.46
  Q 398.15 337.13 398.95 336.83
  C 412.89 331.67 420.87 320.20 423.16 305.98
  Q 424.84 295.54 423.72 286.14
  A 1.31 1.29 89.4 0 0 422.56 284.99
  Q 414.54 284.19 406.37 284.26
  A 0.40 0.40 0.0 0 0 405.98 284.73
  Q 407.77 294.69 406.13 304.73
  C 402.94 324.29 387.74 331.46 369.62 331.63
  Q 356.91 331.75 344.77 331.69
  A 1.20 1.19 90.0 0 1 343.58 330.49
  L 343.56 257.55
  Q 343.56 256.82 344.29 256.83"
/>
<path stroke="#808080" vector-effect="non-scaling-stroke" d="
  M 308.55 331.71
  A 0.56 0.56 0.0 0 1 307.99 331.15
  L 307.97 282.91
  A 0.56 0.56 0.0 0 1 308.53 282.35
  L 323.98 282.32
  A 0.56 0.56 0.0 0 0 324.54 281.76
  L 324.51 267.49
  A 0.56 0.56 0.0 0 0 323.95 266.93
  L 291.31 266.95
  A 0.56 0.56 0.0 0 0 290.75 267.51
  L 290.75 418.39
  A 0.56 0.56 0.0 0 0 291.31 418.95
  L 323.95 418.92
  A 0.56 0.56 0.0 0 0 324.51 418.36
  L 324.54 404.08
  A 0.56 0.56 0.0 0 0 323.98 403.52
  L 308.54 403.51
  A 0.56 0.56 0.0 0 1 307.98 402.95
  L 307.97 346.57
  A 0.56 0.56 0.0 0 1 308.53 346.01
  L 323.96 346.04
  A 0.56 0.56 0.0 0 0 324.52 345.48
  L 324.53 332.22
  A 0.56 0.56 0.0 0 0 323.97 331.66
  L 308.55 331.71"
/>
<path stroke="#808080" vector-effect="non-scaling-stroke" d="
  M 441.93 338.83
  Q 440.49 338.37 441.92 337.87
  C 453.42 333.89 459.73 323.58 460.63 311.57
  C 461.82 295.65 455.93 280.99 441.60 273.12
  Q 431.14 267.38 420.35 267.30
  Q 383.19 267.03 346.32 266.90
  A 0.83 0.82 -89.7 0 0 345.49 267.73
  L 345.48 281.76
  A 0.58 0.58 0.0 0 0 346.06 282.34
  Q 376.13 282.30 410.22 282.37
  C 416.86 282.38 423.78 282.62 430.23 285.10
  C 439.89 288.82 441.99 297.68 442.05 307.51
  Q 442.11 315.33 440.20 320.64
  C 436.10 332.04 423.12 332.03 413.18 332.25
  C 409.95 332.33 407.02 335.19 404.36 336.78
  A 0.47 0.46 41.8 0 0 404.41 337.60
  Q 411.43 340.72 416.99 345.96
  C 417.95 346.87 419.33 347.30 420.62 347.39
  C 433.88 348.36 445.20 353.20 447.04 368.18
  Q 448.49 379.97 445.89 389.16
  C 443.84 396.40 437.54 400.88 430.08 402.15
  C 424.60 403.08 418.79 403.53 413.04 403.53
  Q 378.94 403.51 346.20 403.52
  A 0.71 0.71 0.0 0 0 345.49 404.23
  L 345.49 418.29
  A 0.64 0.64 0.0 0 0 346.13 418.93
  Q 384.98 419.00 424.25 418.71
  Q 436.97 418.62 447.38 413.58
  Q 461.50 406.75 464.91 390.23
  Q 467.18 379.26 465.98 366.96
  Q 464.30 349.60 450.90 342.34
  C 448.08 340.82 444.97 339.80 441.93 338.83"
/>
<path stroke="#ffdc8e" vector-effect="non-scaling-stroke" d="
  M 559.0670 283.1813
  A 18.78 17.79 -15.5 0 0 536.2158 271.0570
  A 18.78 17.79 -15.5 0 0 522.8730 293.2187
  A 18.78 17.79 -15.5 0 0 545.7242 305.3430
  A 18.78 17.79 -15.5 0 0 559.0670 283.1813"
/>
<path stroke="#ffdc8e" vector-effect="non-scaling-stroke" d="
  M 174.27 300.79
  L 185.49 303.88
  A 1.36 1.36 0.0 0 0 187.16 302.93
  L 189.50 294.43
  A 7.61 6.95 -74.6 0 0 184.82 285.25
  L 184.38 285.13
  A 7.61 6.95 -74.6 0 0 175.66 290.62
  L 173.32 299.11
  A 1.36 1.36 0.0 0 0 174.27 300.79"
/>
<path stroke="#ffdc8e" vector-effect="non-scaling-stroke" d="
  M 193.82 306.14
  L 208.02 310.16
  A 0.92 0.92 0.0 0 0 209.15 309.52
  L 211.81 300.15
  A 8.46 8.09 -74.2 0 0 206.33 289.81
  L 205.92 289.69
  A 8.46 8.09 -74.2 0 0 195.83 295.63
  L 193.18 305.00
  A 0.92 0.92 0.0 0 0 193.82 306.14"
/>
<path stroke="#ffdc8e" vector-effect="non-scaling-stroke" d="
  M 444.29 516.49
  L 445.46 516.76
  A 1.84 1.83 -69.1 0 0 447.49 515.85
  C 449.59 512.02 446.86 507.52 442.85 506.81
  C 438.86 506.11 435.97 509.38 436.44 513.20
  Q 436.92 517.02 440.70 518.44
  Q 442.99 519.29 443.55 516.94
  Q 443.69 516.35 444.29 516.49"
/>
<path stroke="#ffdc8e" vector-effect="non-scaling-stroke" d="
  M 306.60 511.22
  L 302.85 521.71
  A 0.65 0.65 0.0 0 0 303.24 522.54
  L 305.10 523.21
  A 6.35 6.00 19.7 0 0 313.10 519.70
  L 313.25 519.29
  A 6.35 6.00 19.7 0 0 309.30 511.50
  L 307.43 510.83
  A 0.65 0.65 0.0 0 0 306.60 511.22"
/>
<path stroke="#ffdc8e" vector-effect="non-scaling-stroke" d="
  M 424.12 521.16
  A 0.37 0.37 0.0 0 0 424.61 521.52
  L 427.12 520.60
  A 0.37 0.37 0.0 0 0 427.27 520.00
  L 424.85 517.29
  A 0.37 0.37 0.0 0 0 424.20 517.53
  L 424.12 521.16"
/>
<path stroke="#ffdc8e" vector-effect="non-scaling-stroke" d="
  M 407.38 518.99
  L 408.39 523.15
  A 1.38 1.38 0.0 0 0 410.06 524.17
  L 411.45 523.83
  A 3.41 3.22 -13.6 0 0 414.00 519.90
  L 413.86 519.32
  A 3.41 3.22 -13.6 0 0 409.79 516.99
  L 408.40 517.33
  A 1.38 1.38 0.0 0 0 407.38 518.99"
/>
<path stroke="#ffdc8e" vector-effect="non-scaling-stroke" d="
  M 324.33 524.71
  L 326.56 524.90
  A 0.26 0.26 0.0 0 0 326.84 524.66
  L 326.85 524.50
  A 3.02 1.32 -85.1 0 0 325.80 521.38
  L 325.68 521.37
  A 3.02 1.32 -85.1 0 0 324.10 524.27
  L 324.09 524.43
  A 0.26 0.26 0.0 0 0 324.33 524.71"
/>
<path stroke="#ffdc8e" vector-effect="non-scaling-stroke" d="
  M 340.14 520.34
  L 338.74 531.13
  A 0.71 0.71 0.0 0 0 339.35 531.92
  L 341.45 532.20
  A 6.13 5.99 7.4 0 0 348.30 527.05
  L 348.34 526.73
  A 6.13 5.99 7.4 0 0 343.04 520.00
  L 340.93 519.73
  A 0.71 0.71 0.0 0 0 340.14 520.34"
/>
</g>
<path fill="#ffffff" d="
  M 0.00 0.00
  L 740.00 0.00
  L 740.00 738.00
  L 0.00 738.00
  L 0.00 0.00
  Z
  M 607.3496 344.3639
  A 238.42 238.31 -0.1 0 0 368.5141 106.4704
  A 238.42 238.31 -0.1 0 0 130.5104 345.1961
  A 238.42 238.31 -0.1 0 0 369.3459 583.0896
  A 238.42 238.31 -0.1 0 0 607.3496 344.3639
  Z"
/>
<path fill="#000000" d="
  M 607.3496 344.3639
  A 238.42 238.31 -0.1 0 1 369.3459 583.0896
  A 238.42 238.31 -0.1 0 1 130.5104 345.1961
  A 238.42 238.31 -0.1 0 1 368.5141 106.4704
  A 238.42 238.31 -0.1 0 1 607.3496 344.3639
  Z
  M 602.7811 348.4638
  A 233.89 233.78 0.9 0 0 372.5921 111.0388
  A 233.89 233.78 0.9 0 0 135.0589 341.1162
  A 233.89 233.78 0.9 0 0 365.2479 578.5412
  A 233.89 233.78 0.9 0 0 602.7811 348.4638
  Z"
/>
<path fill="#ffffff" d="
  M 602.7811 348.4638
  A 233.89 233.78 0.9 0 1 365.2479 578.5412
  A 233.89 233.78 0.9 0 1 135.0589 341.1162
  A 233.89 233.78 0.9 0 1 372.5921 111.0388
  A 233.89 233.78 0.9 0 1 602.7811 348.4638
  Z
  M 595.56 344.84
  A 226.56 226.56 0.0 0 0 369.00 118.28
  A 226.56 226.56 0.0 0 0 142.44 344.84
  A 226.56 226.56 0.0 0 0 369.00 571.40
  A 226.56 226.56 0.0 0 0 595.56 344.84
  Z"
/>
<path fill="#feb81c" d="
  M 595.56 344.84
  A 226.56 226.56 0.0 0 1 369.00 571.40
  A 226.56 226.56 0.0 0 1 142.44 344.84
  A 226.56 226.56 0.0 0 1 369.00 118.28
  A 226.56 226.56 0.0 0 1 595.56 344.84
  Z
  M 382.01 164.43
  A 25.85 25.85 0.0 0 0 356.16 138.58
  A 25.85 25.85 0.0 0 0 330.31 164.43
  A 25.85 25.85 0.0 0 0 356.16 190.28
  A 25.85 25.85 0.0 0 0 382.01 164.43
  Z
  M 413.44 194.95
  Q 417.32 195.77 420.76 195.37
  A 1.65 1.65 0.0 0 0 422.20 194.01
  L 423.13 188.44
  Q 423.30 187.44 422.33 187.71
  C 413.81 190.05 405.21 185.19 402.14 177.17
  C 395.52 159.83 414.04 143.21 429.97 154.89
  Q 430.89 155.56 431.27 154.49
  Q 432.23 151.76 432.64 148.79
  Q 432.82 147.46 431.60 146.92
  Q 425.60 144.27 420.76 143.87
  C 400.38 142.16 386.77 163.36 395.62 181.44
  Q 400.95 192.31 413.44 194.95
  Z
  M 312.44 169.47
  C 315.09 163.34 313.88 156.20 308.08 152.70
  C 302.72 149.49 298.13 150.06 292.12 152.48
  Q 284.83 155.42 278.35 157.99
  A 0.65 0.65 0.0 0 0 277.99 158.83
  L 295.69 204.26
  A 0.71 0.71 0.0 0 0 296.60 204.66
  Q 304.82 201.51 313.48 198.05
  Q 320.14 195.39 322.40 189.64
  C 325.52 181.76 321.67 172.41 312.96 170.48
  A 0.74 0.74 0.0 0 1 312.44 169.47
  Z
  M 457.85 201.13
  A 2.72 2.66 -54.7 0 1 458.09 202.63
  Q 457.41 207.93 456.76 213.52
  A 1.64 1.64 0.0 0 0 457.59 215.13
  L 462.25 217.69
  Q 463.21 218.21 463.47 217.15
  C 464.14 214.50 464.22 211.67 464.53 208.91
  Q 467.22 185.61 469.52 164.45
  Q 469.64 163.31 468.74 164.02
  L 427.54 196.75
  Q 426.27 197.76 427.69 198.53
  L 431.97 200.85
  Q 433.24 201.53 434.34 200.61
  L 441.85 194.31
  A 3.25 3.25 0.0 0 1 445.62 194.01
  Q 450.94 197.22 457.06 200.32
  Q 457.60 200.59 457.85 201.13
  Z
  M 268.90 199.03
  Q 268.40 199.25 267.86 199.13
  Q 249.90 195.17 232.79 191.27
  Q 228.86 190.38 225.93 194.79
  A 1.05 1.05 0.0 0 0 225.98 196.03
  L 255.50 233.33
  Q 256.19 234.20 257.08 233.53
  L 260.92 230.62
  A 1.03 1.03 0.0 0 0 261.10 229.15
  L 239.45 201.99
  Q 238.04 200.22 240.26 200.70
  Q 260.22 205.01 279.96 208.90
  Q 282.82 209.46 286.24 210.05
  Q 287.43 210.26 286.67 209.31
  L 257.06 172.01
  Q 255.82 170.45 254.29 171.71
  L 251.74 173.78
  Q 250.48 174.81 251.49 176.09
  L 269.07 198.35
  Q 269.43 198.80 268.90 199.03
  Z
  M 475.66 229.67
  A 1.24 1.24 0.0 0 0 477.41 229.57
  L 504.56 199.29
  A 1.24 1.24 0.0 0 1 506.31 199.20
  L 513.63 205.83
  A 1.24 1.24 0.0 0 0 515.37 205.75
  L 518.59 202.27
  A 1.24 1.24 0.0 0 0 518.50 200.50
  L 496.26 180.73
  A 1.24 1.24 0.0 0 0 494.48 180.86
  L 491.57 184.36
  A 1.24 1.24 0.0 0 0 491.71 186.09
  L 499.12 192.53
  A 1.24 1.24 0.0 0 1 499.23 194.30
  L 471.97 224.67
  A 1.24 1.24 0.0 0 0 472.06 226.42
  L 475.66 229.67
  Z
  M 509.02 344.83
  A 140.02 140.02 0.0 0 0 369.00 204.81
  A 140.02 140.02 0.0 0 0 228.98 344.83
  A 140.02 140.02 0.0 0 0 369.00 484.85
  A 140.02 140.02 0.0 0 0 509.02 344.83
  Z
  M 531.20 228.61
  Q 530.87 229.06 530.43 229.36
  Q 513.02 241.38 497.22 252.22
  Q 496.43 252.76 496.96 253.56
  L 499.94 258.07
  A 0.98 0.98 0.0 0 0 501.31 258.34
  L 535.07 235.06
  A 1.27 1.27 0.0 0 1 536.85 235.41
  L 542.31 243.75
  Q 542.93 244.69 543.85 244.06
  L 548.01 241.24
  Q 548.93 240.62 548.30 239.70
  L 531.42 215.32
  A 1.38 1.38 0.0 0 0 529.51 214.96
  L 525.86 217.43
  Q 524.72 218.21 525.53 219.33
  L 531.21 227.22
  A 1.18 1.18 0.0 0 1 531.20 228.61
  Z
  M 240.1808 258.2003
  A 25.98 25.70 26.2 0 0 228.2167 223.6705
  A 25.98 25.70 26.2 0 0 193.5592 235.2597
  A 25.98 25.70 26.2 0 0 205.5233 269.7895
  A 25.98 25.70 26.2 0 0 240.1808 258.2003
  Z
  M 566.2701 282.0893
  A 26.03 25.66 -13.6 0 0 534.9363 263.2695
  A 26.03 25.66 -13.6 0 0 515.6699 294.3307
  A 26.03 25.66 -13.6 0 0 547.0037 313.1505
  A 26.03 25.66 -13.6 0 0 566.2701 282.0893
  Z
  M 194.20 284.21
  C 189.83 275.77 178.42 275.34 172.58 282.36
  Q 170.30 285.10 169.10 290.08
  Q 167.30 297.61 164.83 305.04
  A 0.61 0.60 -72.8 0 0 165.24 305.82
  L 212.20 318.91
  A 1.01 1.01 0.0 0 0 213.45 318.21
  Q 215.48 310.81 218.10 301.45
  C 219.45 296.59 219.27 292.90 216.58 288.52
  C 212.28 281.53 202.57 279.78 195.88 284.61
  A 1.14 1.14 0.0 0 1 194.20 284.21
  Z
  M 242.04 473.65
  L 243.46 471.95
  A 1.16 1.16 0.0 0 1 245.17 471.86
  L 248.70 475.36
  Q 249.26 475.91 250.00 475.67
  Q 250.31 475.56 250.43 475.33
  Q 251.00 474.28 250.14 473.45
  Q 248.08 471.45 245.99 469.41
  Q 244.17 467.63 242.51 469.46
  Q 237.88 474.61 233.18 479.78
  A 0.50 0.50 0.0 0 0 233.38 480.59
  L 233.66 480.69
  Q 234.63 481.05 235.36 480.32
  L 239.09 476.57
  A 0.95 0.95 0.0 0 1 240.45 476.57
  L 243.04 479.24
  Q 243.62 479.84 244.43 480.04
  Q 246.28 480.50 245.95 479.26
  Q 245.75 478.51 245.18 477.98
  L 242.14 475.19
  Q 241.35 474.47 242.04 473.65
  Z
  M 494.99 478.35
  L 498.78 474.81
  Q 499.26 474.35 498.81 473.87
  L 498.54 473.59
  Q 497.77 472.76 496.92 473.51
  L 493.82 476.22
  Q 492.50 477.38 491.24 476.14
  L 491.00 475.90
  Q 489.75 474.66 491.03 473.44
  L 494.45 470.22
  A 0.79 0.78 60.7 0 0 494.66 469.45
  Q 494.50 468.84 493.92 468.58
  A 1.16 1.15 -54.7 0 0 492.66 468.80
  L 487.13 474.16
  A 0.72 0.71 46.4 0 0 487.11 475.17
  L 497.17 485.77
  A 0.93 0.92 -40.1 0 0 498.41 485.87
  Q 501.80 483.29 504.38 480.10
  A 0.88 0.87 25.3 0 0 503.87 478.69
  Q 503.13 478.55 502.52 479.07
  Q 500.79 480.54 499.25 482.28
  A 1.42 1.41 44.5 0 1 497.14 482.29
  L 494.93 479.87
  Q 494.21 479.08 494.99 478.35
  Z
  M 482.56 481.33
  L 484.63 478.56
  A 0.40 0.40 0.0 0 0 484.47 477.96
  L 484.11 477.81
  Q 483.42 477.51 482.84 477.98
  L 475.94 483.46
  A 0.89 0.86 71.4 0 0 475.61 484.15
  Q 475.63 484.98 476.33 485.16
  Q 477.20 485.38 477.87 484.79
  Q 479.73 483.15 480.24 483.78
  Q 484.13 488.57 488.05 493.20
  Q 488.77 494.04 489.82 493.69
  Q 490.10 493.60 490.25 493.31
  Q 490.57 492.68 490.13 492.13
  L 482.58 482.74
  A 1.15 1.14 44.3 0 1 482.56 481.33
  Z
  M 248.40 489.39
  L 250.66 486.69
  A 0.90 0.90 0.0 0 1 251.89 486.55
  L 256.17 489.71
  Q 256.80 490.18 257.29 489.56
  Q 257.45 489.35 257.52 489.09
  Q 257.80 488.03 256.93 487.37
  L 253.94 485.11
  Q 252.95 484.37 253.53 483.28
  L 254.05 482.32
  Q 254.81 480.90 256.12 481.85
  L 260.41 485.01
  A 0.84 0.83 -38.5 0 0 261.25 485.10
  Q 261.56 484.97 261.73 484.70
  Q 262.27 483.85 261.50 483.21
  L 256.10 478.67
  A 1.68 1.67 39.4 0 0 253.72 478.90
  L 245.23 489.51
  A 1.22 1.22 0.0 0 0 245.34 491.15
  Q 248.51 494.21 251.64 496.12
  A 0.92 0.92 0.0 0 0 252.29 496.25
  Q 252.80 496.16 252.94 495.82
  Q 253.29 494.98 252.61 494.37
  L 248.49 490.71
  A 0.95 0.94 -49.2 0 1 248.40 489.39
  Z
  M 260.82 500.16
  Q 260.18 499.70 260.63 499.06
  Q 263.90 494.40 267.11 489.57
  Q 267.73 488.62 267.63 487.48
  Q 267.58 486.89 266.64 486.92
  A 0.97 0.95 -73.2 0 0 265.87 487.34
  L 257.22 499.90
  A 0.68 0.68 0.0 0 0 257.41 500.86
  L 263.79 505.04
  A 0.82 0.80 45.7 0 0 264.65 505.06
  Q 265.09 504.79 265.22 504.36
  Q 265.46 503.49 264.73 502.96
  L 260.82 500.16
  Z
  M 468.57 491.45
  L 472.50 488.92
  Q 473.16 488.50 473.09 487.72
  Q 473.06 487.35 472.69 486.98
  A 1.08 1.08 0.0 0 0 471.33 486.85
  L 465.34 490.96
  Q 464.21 491.74 464.99 492.87
  L 473.12 504.64
  A 1.04 1.04 0.0 0 0 474.60 504.89
  L 481.45 499.85
  A 0.59 0.58 -23.8 0 0 481.68 499.27
  Q 481.58 498.72 481.20 498.59
  Q 480.18 498.24 479.28 498.74
  Q 477.40 499.79 475.60 501.24
  Q 474.26 502.32 473.38 500.85
  L 472.02 498.57
  Q 471.13 497.07 472.69 496.28
  Q 474.36 495.43 475.83 494.28
  Q 476.54 493.73 476.41 493.01
  A 1.12 1.11 -21.3 0 0 474.70 492.26
  L 470.87 494.73
  Q 469.74 495.47 468.93 494.38
  L 468.21 493.39
  Q 467.36 492.23 468.57 491.45
  Z
  M 279.0541 496.0136
  A 1.12 1.12 0.0 0 0 278.6790 494.4748
  L 278.6448 494.4540
  A 1.12 1.12 0.0 0 0 277.1059 494.8291
  L 269.3859 507.5264
  A 1.12 1.12 0.0 0 0 269.7610 509.0652
  L 269.7952 509.0860
  A 1.12 1.12 0.0 0 0 271.3341 508.7109
  L 279.0541 496.0136
  Z
  M 450.71 500.72
  Q 453.32 505.96 455.86 510.08
  C 459.12 515.38 468.62 511.17 465.89 505.22
  Q 463.85 500.76 460.62 495.52
  Q 460.01 494.52 458.87 494.81
  Q 458.70 494.85 458.57 494.95
  Q 457.80 495.54 458.28 496.38
  L 463.66 505.78
  Q 465.16 508.41 462.44 509.76
  L 461.94 510.00
  Q 459.73 511.10 458.33 509.06
  Q 455.43 504.83 452.90 499.95
  Q 452.42 499.00 451.36 499.05
  Q 450.81 499.08 450.62 499.94
  A 1.23 1.18 39.6 0 0 450.71 500.72
  Z
  M 281.42 507.73
  C 282.32 503.12 288.22 501.11 291.53 504.57
  A 0.76 0.76 0.0 0 0 292.80 504.29
  C 294.59 499.02 278.06 497.93 278.67 509.97
  Q 278.95 515.32 285.52 517.24
  A 0.89 0.88 16.9 0 0 286.61 516.66
  L 286.73 516.27
  A 1.02 1.01 -72.2 0 0 286.08 514.99
  Q 280.37 513.09 281.42 507.73
  Z
  M 447.50 519.70
  C 448.15 518.79 449.13 518.01 449.62 517.00
  C 453.08 509.94 447.49 502.22 439.67 504.78
  C 432.24 507.21 431.83 516.65 438.54 520.41
  C 440.12 521.30 442.11 520.99 443.88 521.18
  A 1.26 1.21 -11.7 0 1 444.80 521.76
  C 445.23 522.47 445.42 523.32 446.32 523.60
  Q 446.99 523.81 447.47 523.22
  A 0.81 0.80 -31.2 0 0 447.64 522.54
  L 447.28 520.69
  Q 447.18 520.15 447.50 519.70
  Z
  M 299.6992 506.7878
  A 1.11 1.11 0.0 0 0 299.1265 505.3263
  L 299.0715 505.3023
  A 1.11 1.11 0.0 0 0 297.6099 505.8750
  L 291.6608 519.4922
  A 1.11 1.11 0.0 0 0 292.2335 520.9537
  L 292.2885 520.9777
  A 1.11 1.11 0.0 0 0 293.7501 520.4050
  L 299.6992 506.7878
  Z
  M 304.69 508.97
  L 300.22 522.57
  A 1.11 1.11 0.0 0 0 300.92 523.97
  L 304.99 525.31
  A 8.31 8.20 18.2 0 0 315.45 520.12
  L 315.49 519.98
  A 8.31 8.20 18.2 0 0 310.16 509.60
  L 306.09 508.26
  A 1.11 1.11 0.0 0 0 304.69 508.97
  Z
  M 424.52 523.68
  L 428.25 522.57
  Q 428.79 522.41 429.18 522.80
  L 431.03 524.60
  A 2.36 2.35 64.7 0 0 432.87 525.26
  L 433.39 525.21
  Q 434.68 525.10 433.83 524.12
  Q 428.47 517.95 423.58 512.14
  Q 423.33 511.85 422.97 511.81
  A 0.50 0.50 0.0 0 0 422.42 512.27
  L 421.25 527.85
  A 0.85 0.84 -88.4 0 0 422.10 528.76
  L 422.46 528.76
  Q 423.41 528.74 423.49 527.79
  L 423.77 524.59
  A 1.06 1.05 84.7 0 1 424.52 523.68
  Z
  M 409.50 527.25
  Q 409.33 526.10 410.49 525.95
  Q 414.86 525.41 416.03 522.54
  Q 417.09 519.93 415.81 517.54
  C 413.75 513.68 408.44 515.01 405.01 516.23
  A 0.81 0.80 -15.1 0 0 404.48 517.14
  Q 405.92 524.59 408.11 531.60
  A 0.93 0.93 0.0 0 0 409.19 532.24
  L 409.56 532.17
  A 0.67 0.67 0.0 0 0 410.09 531.42
  L 409.50 527.25
  Z
  M 323.06 526.45
  L 326.52 527.39
  A 1.29 1.27 89.9 0 1 327.43 528.31
  Q 327.82 529.77 328.25 531.29
  Q 328.51 532.18 329.35 532.54
  Q 329.73 532.70 330.16 532.34
  A 0.71 0.70 67.2 0 0 330.42 531.68
  L 328.11 515.77
  A 0.59 0.59 0.0 0 0 327.04 515.51
  L 317.60 528.59
  A 0.66 0.65 -36.7 0 0 317.51 529.17
  Q 317.73 529.83 318.10 529.83
  Q 319.20 529.82 319.90 528.92
  Q 320.74 527.84 321.65 526.86
  A 1.40 1.40 0.0 0 1 323.06 526.45
  Z
  M 338.09 518.44
  L 336.07 532.43
  A 1.21 1.21 0.0 0 0 337.10 533.80
  L 341.26 534.40
  A 8.28 8.14 8.2 0 0 350.62 527.53
  L 350.66 527.25
  A 8.28 8.14 8.2 0 0 343.63 518.01
  L 339.46 517.41
  A 1.21 1.21 0.0 0 0 338.09 518.44
  Z
  M 381.24 525.01
  Q 381.15 523.60 382.15 524.60
  L 391.49 534.01
  Q 392.83 535.36 392.66 533.47
  L 391.43 519.51
  A 1.05 1.04 -5.8 0 0 390.26 518.56
  L 389.95 518.60
  A 0.88 0.87 -7.9 0 0 389.19 519.60
  Q 389.81 523.52 389.77 527.10
  Q 389.74 529.18 388.41 527.58
  Q 384.96 523.44 381.76 520.74
  Q 378.05 517.61 378.57 522.43
  L 379.95 535.20
  Q 380.03 535.88 380.71 535.81
  L 381.22 535.77
  A 0.70 0.70 0.0 0 0 381.86 535.02
  L 381.24 525.01
  Z
  M 366.53 522.52
  A 0.46 0.46 0.0 0 1 366.99 522.06
  L 373.47 522.16
  A 0.46 0.46 0.0 0 0 373.93 521.75
  L 374.07 520.40
  A 0.46 0.46 0.0 0 0 373.61 519.90
  L 364.51 519.85
  A 0.46 0.46 0.0 0 0 364.05 520.31
  L 364.10 536.10
  A 0.46 0.46 0.0 0 0 364.57 536.55
  L 373.37 536.25
  A 0.46 0.46 0.0 0 0 373.81 535.86
  L 374.02 534.46
  A 0.46 0.46 0.0 0 0 373.55 533.94
  L 366.97 534.12
  A 0.46 0.46 0.0 0 1 366.49 533.65
  L 366.54 528.92
  A 0.46 0.46 0.0 0 1 366.99 528.46
  L 373.22 528.34
  A 0.46 0.46 0.0 0 0 373.66 527.81
  L 373.46 526.58
  A 0.46 0.46 0.0 0 0 373.03 526.20
  L 367.02 525.96
  A 0.46 0.46 0.0 0 1 366.57 525.50
  L 366.53 522.52
  Z"
/>
<path fill="#ffffff" d="
  M 382.01 164.43
  A 25.85 25.85 0.0 0 1 356.16 190.28
  A 25.85 25.85 0.0 0 1 330.31 164.43
  A 25.85 25.85 0.0 0 1 356.16 138.58
  A 25.85 25.85 0.0 0 1 382.01 164.43
  Z
  M 357.9661 183.0637
  A 18.74 17.82 84.5 0 0 373.9080 162.7020
  A 18.74 17.82 84.5 0 0 354.3739 145.7563
  A 18.74 17.82 84.5 0 0 338.4320 166.1180
  A 18.74 17.82 84.5 0 0 357.9661 183.0637
  Z"
/>
<path fill="#ffffff" d="
  M 413.44 194.95
  Q 400.95 192.31 395.62 181.44
  C 386.77 163.36 400.38 142.16 420.76 143.87
  Q 425.60 144.27 431.60 146.92
  Q 432.82 147.46 432.64 148.79
  Q 432.23 151.76 431.27 154.49
  Q 430.89 155.56 429.97 154.89
  C 414.04 143.21 395.52 159.83 402.14 177.17
  C 405.21 185.19 413.81 190.05 422.33 187.71
  Q 423.30 187.44 423.13 188.44
  L 422.20 194.01
  A 1.65 1.65 0.0 0 1 420.76 195.37
  Q 417.32 195.77 413.44 194.95
  Z"
/>
<ellipse fill="#feb81c" cx="0.00" cy="0.00" transform="translate(356.17,164.41) rotate(84.5)" rx="18.74" ry="17.82"/>
<path fill="#ffffff" d="
  M 312.44 169.47
  A 0.74 0.74 0.0 0 0 312.96 170.48
  C 321.67 172.41 325.52 181.76 322.40 189.64
  Q 320.14 195.39 313.48 198.05
  Q 304.82 201.51 296.60 204.66
  A 0.71 0.71 0.0 0 1 295.69 204.26
  L 277.99 158.83
  A 0.65 0.65 0.0 0 1 278.35 157.99
  Q 284.83 155.42 292.12 152.48
  C 298.13 150.06 302.72 149.49 308.08 152.70
  C 313.88 156.20 315.09 163.34 312.44 169.47
  Z
  M 287.28 162.67
  L 291.68 173.77
  A 1.18 1.18 0.0 0 0 293.21 174.44
  L 301.39 171.20
  A 7.74 6.85 -21.6 0 0 306.07 161.98
  L 305.85 161.42
  A 7.74 6.85 -21.6 0 0 296.13 157.90
  L 287.95 161.14
  A 1.18 1.18 0.0 0 0 287.28 162.67
  Z
  M 294.85 181.99
  L 299.92 195.05
  A 1.31 1.31 0.0 0 0 301.61 195.79
  L 309.83 192.60
  A 9.23 8.25 -21.2 0 0 315.46 181.58
  L 315.41 181.46
  A 9.23 8.25 -21.2 0 0 303.82 177.11
  L 295.60 180.30
  A 1.31 1.31 0.0 0 0 294.85 181.99
  Z"
/>
<path fill="#feb81c" d="
  M 287.28 162.67
  A 1.18 1.18 0.0 0 1 287.95 161.14
  L 296.13 157.90
  A 7.74 6.85 -21.6 0 1 305.85 161.42
  L 306.07 161.98
  A 7.74 6.85 -21.6 0 1 301.39 171.20
  L 293.21 174.44
  A 1.18 1.18 0.0 0 1 291.68 173.77
  L 287.28 162.67
  Z"
/>
<path fill="#ffffff" d="
  M 457.85 201.13
  Q 457.60 200.59 457.06 200.32
  Q 450.94 197.22 445.62 194.01
  A 3.25 3.25 0.0 0 0 441.85 194.31
  L 434.34 200.61
  Q 433.24 201.53 431.97 200.85
  L 427.69 198.53
  Q 426.27 197.76 427.54 196.75
  L 468.74 164.02
  Q 469.64 163.31 469.52 164.45
  Q 467.22 185.61 464.53 208.91
  C 464.22 211.67 464.14 214.50 463.47 217.15
  Q 463.21 218.21 462.25 217.69
  L 457.59 215.13
  A 1.64 1.64 0.0 0 1 456.76 213.52
  Q 457.41 207.93 458.09 202.63
  A 2.72 2.66 -54.7 0 0 457.85 201.13
  Z
  M 449.67 188.07
  A 0.58 0.58 0.0 0 0 449.76 189.02
  L 458.50 193.81
  A 0.58 0.58 0.0 0 0 459.36 193.37
  L 461.05 179.90
  A 0.58 0.58 0.0 0 0 460.11 179.38
  L 449.67 188.07
  Z"
/>
<path fill="#ffffff" d="
  M 268.90 199.03
  Q 269.43 198.80 269.07 198.35
  L 251.49 176.09
  Q 250.48 174.81 251.74 173.78
  L 254.29 171.71
  Q 255.82 170.45 257.06 172.01
  L 286.67 209.31
  Q 287.43 210.26 286.24 210.05
  Q 282.82 209.46 279.96 208.90
  Q 260.22 205.01 240.26 200.70
  Q 238.04 200.22 239.45 201.99
  L 261.10 229.15
  A 1.03 1.03 0.0 0 1 260.92 230.62
  L 257.08 233.53
  Q 256.19 234.20 255.50 233.33
  L 225.98 196.03
  A 1.05 1.05 0.0 0 1 225.93 194.79
  Q 228.86 190.38 232.79 191.27
  Q 249.90 195.17 267.86 199.13
  Q 268.40 199.25 268.90 199.03
  Z"
/>
<path fill="#feb81c" d="
  M 294.85 181.99
  A 1.31 1.31 0.0 0 1 295.60 180.30
  L 303.82 177.11
  A 9.23 8.25 -21.2 0 1 315.41 181.46
  L 315.46 181.58
  A 9.23 8.25 -21.2 0 1 309.83 192.60
  L 301.61 195.79
  A 1.31 1.31 0.0 0 1 299.92 195.05
  L 294.85 181.99
  Z"
/>
<path fill="#feb81c" d="
  M 449.67 188.07
  L 460.11 179.38
  A 0.58 0.58 0.0 0 1 461.05 179.90
  L 459.36 193.37
  A 0.58 0.58 0.0 0 1 458.50 193.81
  L 449.76 189.02
  A 0.58 0.58 0.0 0 1 449.67 188.07
  Z"
/>
<path fill="#ffffff" d="
  M 475.66 229.67
  L 472.06 226.42
  A 1.24 1.24 0.0 0 1 471.97 224.67
  L 499.23 194.30
  A 1.24 1.24 0.0 0 0 499.12 192.53
  L 491.71 186.09
  A 1.24 1.24 0.0 0 1 491.57 184.36
  L 494.48 180.86
  A 1.24 1.24 0.0 0 1 496.26 180.73
  L 518.50 200.50
  A 1.24 1.24 0.0 0 1 518.59 202.27
  L 515.37 205.75
  A 1.24 1.24 0.0 0 1 513.63 205.83
  L 506.31 199.20
  A 1.24 1.24 0.0 0 0 504.56 199.29
  L 477.41 229.57
  A 1.24 1.24 0.0 0 1 475.66 229.67
  Z"
/>
<path fill="#ffffff" d="
  M 509.02 344.83
  A 140.02 140.02 0.0 0 1 369.00 484.85
  A 140.02 140.02 0.0 0 1 228.98 344.83
  A 140.02 140.02 0.0 0 1 369.00 204.81
  A 140.02 140.02 0.0 0 1 509.02 344.83
  Z
  M 501.89 344.79
  A 132.97 132.97 0.0 0 0 368.92 211.82
  A 132.97 132.97 0.0 0 0 235.95 344.79
  A 132.97 132.97 0.0 0 0 368.92 477.76
  A 132.97 132.97 0.0 0 0 501.89 344.79
  Z"
/>
<path fill="#000000" d="
  M 501.89 344.79
  A 132.97 132.97 0.0 0 1 368.92 477.76
  A 132.97 132.97 0.0 0 1 235.95 344.79
  A 132.97 132.97 0.0 0 1 368.92 211.82
  A 132.97 132.97 0.0 0 1 501.89 344.79
  Z
  M 491.67 344.78
  A 122.74 122.74 0.0 0 0 368.93 222.04
  A 122.74 122.74 0.0 0 0 246.19 344.78
  A 122.74 122.74 0.0 0 0 368.93 467.52
  A 122.74 122.74 0.0 0 0 491.67 344.78
  Z"
/>
<path fill="#ffffff" d="
  M 531.20 228.61
  A 1.18 1.18 0.0 0 0 531.21 227.22
  L 525.53 219.33
  Q 524.72 218.21 525.86 217.43
  L 529.51 214.96
  A 1.38 1.38 0.0 0 1 531.42 215.32
  L 548.30 239.70
  Q 548.93 240.62 548.01 241.24
  L 543.85 244.06
  Q 542.93 244.69 542.31 243.75
  L 536.85 235.41
  A 1.27 1.27 0.0 0 0 535.07 235.06
  L 501.31 258.34
  A 0.98 0.98 0.0 0 1 499.94 258.07
  L 496.96 253.56
  Q 496.43 252.76 497.22 252.22
  Q 513.02 241.38 530.43 229.36
  Q 530.87 229.06 531.20 228.61
  Z"
/>
<path fill="#ffffff" d="
  M 240.1808 258.2003
  A 25.98 25.70 26.2 0 1 205.5233 269.7895
  A 25.98 25.70 26.2 0 1 193.5592 235.2597
  A 25.98 25.70 26.2 0 1 228.2167 223.6705
  A 25.98 25.70 26.2 0 1 240.1808 258.2003
  Z
  M 232.9021 256.4253
  A 18.77 17.79 31.1 0 0 226.0191 231.4970
  A 18.77 17.79 31.1 0 0 200.7579 237.0347
  A 18.77 17.79 31.1 0 0 207.6409 261.9630
  A 18.77 17.79 31.1 0 0 232.9021 256.4253
  Z"
/>
<path fill="#ffffff" d="
  M 491.67 344.78
  A 122.74 122.74 0.0 0 1 368.93 467.52
  A 122.74 122.74 0.0 0 1 246.19 344.78
  A 122.74 122.74 0.0 0 1 368.93 222.04
  A 122.74 122.74 0.0 0 1 491.67 344.78
  Z
  M 344.29 256.83
  Q 358.54 257.01 373.50 256.95
  C 380.96 256.93 390.46 258.57 396.02 264.04
  C 396.71 264.71 397.71 265.17 398.67 265.18
  Q 407.75 265.24 415.70 265.19
  A 0.57 0.56 -14.3 0 0 416.20 264.36
  C 408.36 249.69 394.57 242.53 378.44 242.47
  Q 352.84 242.38 326.79 242.45
  Q 326.46 242.45 326.46 242.78
  L 326.46 446.97
  A 0.24 0.24 0.0 0 0 326.70 447.21
  Q 355.06 447.38 376.24 447.12
  C 395.75 446.88 413.43 438.60 423.24 421.24
  A 0.33 0.32 -75.0 0 0 422.96 420.75
  L 404.80 420.76
  A 2.95 2.94 22.6 0 0 402.73 421.61
  C 393.36 430.91 382.69 432.76 369.05 432.64
  Q 356.49 432.54 343.89 432.61
  A 0.34 0.33 90.0 0 1 343.56 432.27
  L 343.58 346.71
  A 0.51 0.50 -89.4 0 1 344.09 346.20
  Q 357.14 346.37 372.00 346.17
  Q 380.17 346.06 386.06 347.72
  Q 405.68 353.25 411.42 372.52
  C 413.98 381.11 414.09 391.73 412.55 400.76
  Q 412.36 401.92 413.53 401.81
  L 428.98 400.45
  A 1.50 1.49 0.2 0 0 430.34 399.11
  Q 431.52 387.66 430.18 376.87
  C 428.28 361.54 418.65 345.86 404.42 339.79
  Q 401.65 338.61 398.94 337.46
  Q 398.15 337.13 398.95 336.83
  C 412.89 331.67 420.87 320.20 423.16 305.98
  Q 424.84 295.54 423.72 286.14
  A 1.31 1.29 89.4 0 0 422.56 284.99
  Q 414.54 284.19 406.37 284.26
  A 0.40 0.40 0.0 0 0 405.98 284.73
  Q 407.77 294.69 406.13 304.73
  C 402.94 324.29 387.74 331.46 369.62 331.63
  Q 356.91 331.75 344.77 331.69
  A 1.20 1.19 90.0 0 1 343.58 330.49
  L 343.56 257.55
  Q 343.56 256.82 344.29 256.83
  Z
  M 308.55 331.71
  A 0.56 0.56 0.0 0 1 307.99 331.15
  L 307.97 282.91
  A 0.56 0.56 0.0 0 1 308.53 282.35
  L 323.98 282.32
  A 0.56 0.56 0.0 0 0 324.54 281.76
  L 324.51 267.49
  A 0.56 0.56 0.0 0 0 323.95 266.93
  L 291.31 266.95
  A 0.56 0.56 0.0 0 0 290.75 267.51
  L 290.75 418.39
  A 0.56 0.56 0.0 0 0 291.31 418.95
  L 323.95 418.92
  A 0.56 0.56 0.0 0 0 324.51 418.36
  L 324.54 404.08
  A 0.56 0.56 0.0 0 0 323.98 403.52
  L 308.54 403.51
  A 0.56 0.56 0.0 0 1 307.98 402.95
  L 307.97 346.57
  A 0.56 0.56 0.0 0 1 308.53 346.01
  L 323.96 346.04
  A 0.56 0.56 0.0 0 0 324.52 345.48
  L 324.53 332.22
  A 0.56 0.56 0.0 0 0 323.97 331.66
  L 308.55 331.71
  Z
  M 441.93 338.83
  Q 440.49 338.37 441.92 337.87
  C 453.42 333.89 459.73 323.58 460.63 311.57
  C 461.82 295.65 455.93 280.99 441.60 273.12
  Q 431.14 267.38 420.35 267.30
  Q 383.19 267.03 346.32 266.90
  A 0.83 0.82 -89.7 0 0 345.49 267.73
  L 345.48 281.76
  A 0.58 0.58 0.0 0 0 346.06 282.34
  Q 376.13 282.30 410.22 282.37
  C 416.86 282.38 423.78 282.62 430.23 285.10
  C 439.89 288.82 441.99 297.68 442.05 307.51
  Q 442.11 315.33 440.20 320.64
  C 436.10 332.04 423.12 332.03 413.18 332.25
  C 409.95 332.33 407.02 335.19 404.36 336.78
  A 0.47 0.46 41.8 0 0 404.41 337.60
  Q 411.43 340.72 416.99 345.96
  C 417.95 346.87 419.33 347.30 420.62 347.39
  C 433.88 348.36 445.20 353.20 447.04 368.18
  Q 448.49 379.97 445.89 389.16
  C 443.84 396.40 437.54 400.88 430.08 402.15
  C 424.60 403.08 418.79 403.53 413.04 403.53
  Q 378.94 403.51 346.20 403.52
  A 0.71 0.71 0.0 0 0 345.49 404.23
  L 345.49 418.29
  A 0.64 0.64 0.0 0 0 346.13 418.93
  Q 384.98 419.00 424.25 418.71
  Q 436.97 418.62 447.38 413.58
  Q 461.50 406.75 464.91 390.23
  Q 467.18 379.26 465.98 366.96
  Q 464.30 349.60 450.90 342.34
  C 448.08 340.82 444.97 339.80 441.93 338.83
  Z"
/>
<ellipse fill="#feb81c" cx="0.00" cy="0.00" transform="translate(216.83,246.73) rotate(31.1)" rx="18.77" ry="17.79"/>
<path fill="#000000" d="
  M 344.29 256.83
  Q 343.56 256.82 343.56 257.55
  L 343.58 330.49
  A 1.20 1.19 90.0 0 0 344.77 331.69
  Q 356.91 331.75 369.62 331.63
  C 387.74 331.46 402.94 324.29 406.13 304.73
  Q 407.77 294.69 405.98 284.73
  A 0.40 0.40 0.0 0 1 406.37 284.26
  Q 414.54 284.19 422.56 284.99
  A 1.31 1.29 89.4 0 1 423.72 286.14
  Q 424.84 295.54 423.16 305.98
  C 420.87 320.20 412.89 331.67 398.95 336.83
  Q 398.15 337.13 398.94 337.46
  Q 401.65 338.61 404.42 339.79
  C 418.65 345.86 428.28 361.54 430.18 376.87
  Q 431.52 387.66 430.34 399.11
  A 1.50 1.49 0.2 0 1 428.98 400.45
  L 413.53 401.81
  Q 412.36 401.92 412.55 400.76
  C 414.09 391.73 413.98 381.11 411.42 372.52
  Q 405.68 353.25 386.06 347.72
  Q 380.17 346.06 372.00 346.17
  Q 357.14 346.37 344.09 346.20
  A 0.51 0.50 -89.4 0 0 343.58 346.71
  L 343.56 432.27
  A 0.34 0.33 -90.0 0 0 343.89 432.61
  Q 356.49 432.54 369.05 432.64
  C 382.69 432.76 393.36 430.91 402.73 421.61
  A 2.95 2.94 22.6 0 1 404.80 420.76
  L 422.96 420.75
  A 0.33 0.32 -75.0 0 1 423.24 421.24
  C 413.43 438.60 395.75 446.88 376.24 447.12
  Q 355.06 447.38 326.70 447.21
  A 0.24 0.24 0.0 0 1 326.46 446.97
  L 326.46 242.78
  Q 326.46 242.45 326.79 242.45
  Q 352.84 242.38 378.44 242.47
  C 394.57 242.53 408.36 249.69 416.20 264.36
  A 0.57 0.56 -14.3 0 1 415.70 265.19
  Q 407.75 265.24 398.67 265.18
  C 397.71 265.17 396.71 264.71 396.02 264.04
  C 390.46 258.57 380.96 256.93 373.50 256.95
  Q 358.54 257.01 344.29 256.83
  Z"
/>
<path fill="#ffffff" d="
  M 566.2701 282.0893
  A 26.03 25.66 -13.6 0 1 547.0037 313.1505
  A 26.03 25.66 -13.6 0 1 515.6699 294.3307
  A 26.03 25.66 -13.6 0 1 534.9363 263.2695
  A 26.03 25.66 -13.6 0 1 566.2701 282.0893
  Z
  M 559.0670 283.1813
  A 18.78 17.79 -15.5 0 0 536.2158 271.0570
  A 18.78 17.79 -15.5 0 0 522.8730 293.2187
  A 18.78 17.79 -15.5 0 0 545.7242 305.3430
  A 18.78 17.79 -15.5 0 0 559.0670 283.1813
  Z"
/>
<path fill="#000000" d="
  M 308.55 331.71
  L 323.97 331.66
  A 0.56 0.56 0.0 0 1 324.53 332.22
  L 324.52 345.48
  A 0.56 0.56 0.0 0 1 323.96 346.04
  L 308.53 346.01
  A 0.56 0.56 0.0 0 0 307.97 346.57
  L 307.98 402.95
  A 0.56 0.56 0.0 0 0 308.54 403.51
  L 323.98 403.52
  A 0.56 0.56 0.0 0 1 324.54 404.08
  L 324.51 418.36
  A 0.56 0.56 0.0 0 1 323.95 418.92
  L 291.31 418.95
  A 0.56 0.56 0.0 0 1 290.75 418.39
  L 290.75 267.51
  A 0.56 0.56 0.0 0 1 291.31 266.95
  L 323.95 266.93
  A 0.56 0.56 0.0 0 1 324.51 267.49
  L 324.54 281.76
  A 0.56 0.56 0.0 0 1 323.98 282.32
  L 308.53 282.35
  A 0.56 0.56 0.0 0 0 307.97 282.91
  L 307.99 331.15
  A 0.56 0.56 0.0 0 0 308.55 331.71
  Z"
/>
<path fill="#000000" d="
  M 441.93 338.83
  C 444.97 339.80 448.08 340.82 450.90 342.34
  Q 464.30 349.60 465.98 366.96
  Q 467.18 379.26 464.91 390.23
  Q 461.50 406.75 447.38 413.58
  Q 436.97 418.62 424.25 418.71
  Q 384.98 419.00 346.13 418.93
  A 0.64 0.64 0.0 0 1 345.49 418.29
  L 345.49 404.23
  A 0.71 0.71 0.0 0 1 346.20 403.52
  Q 378.94 403.51 413.04 403.53
  C 418.79 403.53 424.60 403.08 430.08 402.15
  C 437.54 400.88 443.84 396.40 445.89 389.16
  Q 448.49 379.97 447.04 368.18
  C 445.20 353.20 433.88 348.36 420.62 347.39
  C 419.33 347.30 417.95 346.87 416.99 345.96
  Q 411.43 340.72 404.41 337.60
  A 0.47 0.46 41.8 0 1 404.36 336.78
  C 407.02 335.19 409.95 332.33 413.18 332.25
  C 423.12 332.03 436.10 332.04 440.20 320.64
  Q 442.11 315.33 442.05 307.51
  C 441.99 297.68 439.89 288.82 430.23 285.10
  C 423.78 282.62 416.86 282.38 410.22 282.37
  Q 376.13 282.30 346.06 282.34
  A 0.58 0.58 0.0 0 1 345.48 281.76
  L 345.49 267.73
  A 0.83 0.82 -89.7 0 1 346.32 266.90
  Q 383.19 267.03 420.35 267.30
  Q 431.14 267.38 441.60 273.12
  C 455.93 280.99 461.82 295.65 460.63 311.57
  C 459.73 323.58 453.42 333.89 441.92 337.87
  Q 440.49 338.37 441.93 338.83
  Z"
/>
<ellipse fill="#feb81c" cx="0.00" cy="0.00" transform="translate(540.97,288.20) rotate(-15.5)" rx="18.78" ry="17.79"/>
<path fill="#ffffff" d="
  M 194.20 284.21
  A 1.14 1.14 0.0 0 0 195.88 284.61
  C 202.57 279.78 212.28 281.53 216.58 288.52
  C 219.27 292.90 219.45 296.59 218.10 301.45
  Q 215.48 310.81 213.45 318.21
  A 1.01 1.01 0.0 0 1 212.20 318.91
  L 165.24 305.82
  A 0.61 0.60 -72.8 0 1 164.83 305.04
  Q 167.30 297.61 169.10 290.08
  Q 170.30 285.10 172.58 282.36
  C 178.42 275.34 189.83 275.77 194.20 284.21
  Z
  M 174.27 300.79
  L 185.49 303.88
  A 1.36 1.36 0.0 0 0 187.16 302.93
  L 189.50 294.43
  A 7.61 6.95 -74.6 0 0 184.82 285.25
  L 184.38 285.13
  A 7.61 6.95 -74.6 0 0 175.66 290.62
  L 173.32 299.11
  A 1.36 1.36 0.0 0 0 174.27 300.79
  Z
  M 193.82 306.14
  L 208.02 310.16
  A 0.92 0.92 0.0 0 0 209.15 309.52
  L 211.81 300.15
  A 8.46 8.09 -74.2 0 0 206.33 289.81
  L 205.92 289.69
  A 8.46 8.09 -74.2 0 0 195.83 295.63
  L 193.18 305.00
  A 0.92 0.92 0.0 0 0 193.82 306.14
  Z"
/>
<path fill="#feb81c" d="
  M 174.27 300.79
  A 1.36 1.36 0.0 0 1 173.32 299.11
  L 175.66 290.62
  A 7.61 6.95 -74.6 0 1 184.38 285.13
  L 184.82 285.25
  A 7.61 6.95 -74.6 0 1 189.50 294.43
  L 187.16 302.93
  A 1.36 1.36 0.0 0 1 185.49 303.88
  L 174.27 300.79
  Z"
/>
<path fill="#feb81c" d="
  M 193.82 306.14
  A 0.92 0.92 0.0 0 1 193.18 305.00
  L 195.83 295.63
  A 8.46 8.09 -74.2 0 1 205.92 289.69
  L 206.33 289.81
  A 8.46 8.09 -74.2 0 1 211.81 300.15
  L 209.15 309.52
  A 0.92 0.92 0.0 0 1 208.02 310.16
  L 193.82 306.14
  Z"
/>
<path fill="#ffffff" d="
  M 242.14 475.19
  L 245.18 477.98
  Q 245.75 478.51 245.95 479.26
  Q 246.28 480.50 244.43 480.04
  Q 243.62 479.84 243.04 479.24
  L 240.45 476.57
  A 0.95 0.95 0.0 0 0 239.09 476.57
  L 235.36 480.32
  Q 234.63 481.05 233.66 480.69
  L 233.38 480.59
  A 0.50 0.50 0.0 0 1 233.18 479.78
  Q 237.88 474.61 242.51 469.46
  Q 244.17 467.63 245.99 469.41
  Q 248.08 471.45 250.14 473.45
  Q 251.00 474.28 250.43 475.33
  Q 250.31 475.56 250.00 475.67
  Q 249.26 475.91 248.70 475.36
  L 245.17 471.86
  A 1.16 1.16 0.0 0 0 243.46 471.95
  L 242.04 473.65
  Q 241.35 474.47 242.14 475.19
  Z"
/>
<path fill="#ffffff" d="
  M 494.99 478.35
  Q 494.21 479.08 494.93 479.87
  L 497.14 482.29
  A 1.42 1.41 44.5 0 0 499.25 482.28
  Q 500.79 480.54 502.52 479.07
  Q 503.13 478.55 503.87 478.69
  A 0.88 0.87 25.3 0 1 504.38 480.10
  Q 501.80 483.29 498.41 485.87
  A 0.93 0.92 -40.1 0 1 497.17 485.77
  L 487.11 475.17
  A 0.72 0.71 46.4 0 1 487.13 474.16
  L 492.66 468.80
  A 1.16 1.15 -54.7 0 1 493.92 468.58
  Q 494.50 468.84 494.66 469.45
  A 0.79 0.78 60.7 0 1 494.45 470.22
  L 491.03 473.44
  Q 489.75 474.66 491.00 475.90
  L 491.24 476.14
  Q 492.50 477.38 493.82 476.22
  L 496.92 473.51
  Q 497.77 472.76 498.54 473.59
  L 498.81 473.87
  Q 499.26 474.35 498.78 474.81
  L 494.99 478.35
  Z"
/>
<path fill="#ffffff" d="
  M 482.58 482.74
  L 490.13 492.13
  Q 490.57 492.68 490.25 493.31
  Q 490.10 493.60 489.82 493.69
  Q 488.77 494.04 488.05 493.20
  Q 484.13 488.57 480.24 483.78
  Q 479.73 483.15 477.87 484.79
  Q 477.20 485.38 476.33 485.16
  Q 475.63 484.98 475.61 484.15
  A 0.89 0.86 71.4 0 1 475.94 483.46
  L 482.84 477.98
  Q 483.42 477.51 484.11 477.81
  L 484.47 477.96
  A 0.40 0.40 0.0 0 1 484.63 478.56
  L 482.56 481.33
  A 1.15 1.14 44.3 0 0 482.58 482.74
  Z"
/>
<path fill="#ffffff" d="
  M 248.49 490.71
  L 252.61 494.37
  Q 253.29 494.98 252.94 495.82
  Q 252.80 496.16 252.29 496.25
  A 0.92 0.92 0.0 0 1 251.64 496.12
  Q 248.51 494.21 245.34 491.15
  A 1.22 1.22 0.0 0 1 245.23 489.51
  L 253.72 478.90
  A 1.68 1.67 39.4 0 1 256.10 478.67
  L 261.50 483.21
  Q 262.27 483.85 261.73 484.70
  Q 261.56 484.97 261.25 485.10
  A 0.84 0.83 -38.5 0 1 260.41 485.01
  L 256.12 481.85
  Q 254.81 480.90 254.05 482.32
  L 253.53 483.28
  Q 252.95 484.37 253.94 485.11
  L 256.93 487.37
  Q 257.80 488.03 257.52 489.09
  Q 257.45 489.35 257.29 489.56
  Q 256.80 490.18 256.17 489.71
  L 251.89 486.55
  A 0.90 0.90 0.0 0 0 250.66 486.69
  L 248.40 489.39
  A 0.95 0.94 -49.2 0 0 248.49 490.71
  Z"
/>
<path fill="#ffffff" d="
  M 260.82 500.16
  L 264.73 502.96
  Q 265.46 503.49 265.22 504.36
  Q 265.09 504.79 264.65 505.06
  A 0.82 0.80 45.7 0 1 263.79 505.04
  L 257.41 500.86
  A 0.68 0.68 0.0 0 1 257.22 499.90
  L 265.87 487.34
  A 0.97 0.95 -73.2 0 1 266.64 486.92
  Q 267.58 486.89 267.63 487.48
  Q 267.73 488.62 267.11 489.57
  Q 263.90 494.40 260.63 499.06
  Q 260.18 499.70 260.82 500.16
  Z"
/>
<path fill="#ffffff" d="
  M 468.57 491.45
  Q 467.36 492.23 468.21 493.39
  L 468.93 494.38
  Q 469.74 495.47 470.87 494.73
  L 474.70 492.26
  A 1.12 1.11 -21.3 0 1 476.41 493.01
  Q 476.54 493.73 475.83 494.28
  Q 474.36 495.43 472.69 496.28
  Q 471.13 497.07 472.02 498.57
  L 473.38 500.85
  Q 474.26 502.32 475.60 501.24
  Q 477.40 499.79 479.28 498.74
  Q 480.18 498.24 481.20 498.59
  Q 481.58 498.72 481.68 499.27
  A 0.59 0.58 -23.8 0 1 481.45 499.85
  L 474.60 504.89
  A 1.04 1.04 0.0 0 1 473.12 504.64
  L 464.99 492.87
  Q 464.21 491.74 465.34 490.96
  L 471.33 486.85
  A 1.08 1.08 0.0 0 1 472.69 486.98
  Q 473.06 487.35 473.09 487.72
  Q 473.16 488.50 472.50 488.92
  L 468.57 491.45
  Z"
/>
<rect fill="#ffffff" x="-1.14" y="-8.55" transform="translate(274.22,501.77) rotate(31.3)" width="2.28" height="17.10" rx="1.12"/>
<path fill="#ffffff" d="
  M 450.71 500.72
  A 1.23 1.18 39.6 0 1 450.62 499.94
  Q 450.81 499.08 451.36 499.05
  Q 452.42 499.00 452.90 499.95
  Q 455.43 504.83 458.33 509.06
  Q 459.73 511.10 461.94 510.00
  L 462.44 509.76
  Q 465.16 508.41 463.66 505.78
  L 458.28 496.38
  Q 457.80 495.54 458.57 494.95
  Q 458.70 494.85 458.87 494.81
  Q 460.01 494.52 460.62 495.52
  Q 463.85 500.76 465.89 505.22
  C 468.62 511.17 459.12 515.38 455.86 510.08
  Q 453.32 505.96 450.71 500.72
  Z"
/>
<path fill="#ffffff" d="
  M 291.53 504.57
  C 288.22 501.11 282.32 503.12 281.42 507.73
  Q 280.37 513.09 286.08 514.99
  A 1.02 1.01 -72.2 0 1 286.73 516.27
  L 286.61 516.66
  A 0.89 0.88 16.9 0 1 285.52 517.24
  Q 278.95 515.32 278.67 509.97
  C 278.06 497.93 294.59 499.02 292.80 504.29
  A 0.76 0.76 0.0 0 1 291.53 504.57
  Z"
/>
<path fill="#ffffff" d="
  M 447.28 520.69
  L 447.64 522.54
  A 0.81 0.80 -31.2 0 1 447.47 523.22
  Q 446.99 523.81 446.32 523.60
  C 445.42 523.32 445.23 522.47 444.80 521.76
  A 1.26 1.21 -11.7 0 0 443.88 521.18
  C 442.11 520.99 440.12 521.30 438.54 520.41
  C 431.83 516.65 432.24 507.21 439.67 504.78
  C 447.49 502.22 453.08 509.94 449.62 517.00
  C 449.13 518.01 448.15 518.79 447.50 519.70
  Q 447.18 520.15 447.28 520.69
  Z
  M 444.29 516.49
  L 445.46 516.76
  A 1.84 1.83 -69.1 0 0 447.49 515.85
  C 449.59 512.02 446.86 507.52 442.85 506.81
  C 438.86 506.11 435.97 509.38 436.44 513.20
  Q 436.92 517.02 440.70 518.44
  Q 442.99 519.29 443.55 516.94
  Q 443.69 516.35 444.29 516.49
  Z"
/>
<rect fill="#ffffff" x="-1.14" y="-8.54" transform="translate(295.68,513.14) rotate(23.6)" width="2.28" height="17.08" rx="1.11"/>
<path fill="#feb81c" d="
  M 443.55 516.94
  Q 442.99 519.29 440.70 518.44
  Q 436.92 517.02 436.44 513.20
  C 435.97 509.38 438.86 506.11 442.85 506.81
  C 446.86 507.52 449.59 512.02 447.49 515.85
  A 1.84 1.83 -69.1 0 1 445.46 516.76
  L 444.29 516.49
  Q 443.69 516.35 443.55 516.94
  Z"
/>
<path fill="#ffffff" d="
  M 304.69 508.97
  A 1.11 1.11 0.0 0 1 306.09 508.26
  L 310.16 509.60
  A 8.31 8.20 18.2 0 1 315.49 519.98
  L 315.45 520.12
  A 8.31 8.20 18.2 0 1 304.99 525.31
  L 300.92 523.97
  A 1.11 1.11 0.0 0 1 300.22 522.57
  L 304.69 508.97
  Z
  M 306.60 511.22
  L 302.85 521.71
  A 0.65 0.65 0.0 0 0 303.24 522.54
  L 305.10 523.21
  A 6.35 6.00 19.7 0 0 313.10 519.70
  L 313.25 519.29
  A 6.35 6.00 19.7 0 0 309.30 511.50
  L 307.43 510.83
  A 0.65 0.65 0.0 0 0 306.60 511.22
  Z"
/>
<path fill="#feb81c" d="
  M 306.60 511.22
  A 0.65 0.65 0.0 0 1 307.43 510.83
  L 309.30 511.50
  A 6.35 6.00 19.7 0 1 313.25 519.29
  L 313.10 519.70
  A 6.35 6.00 19.7 0 1 305.10 523.21
  L 303.24 522.54
  A 0.65 0.65 0.0 0 1 302.85 521.71
  L 306.60 511.22
  Z"
/>
<path fill="#ffffff" d="
  M 423.77 524.59
  L 423.49 527.79
  Q 423.41 528.74 422.46 528.76
  L 422.10 528.76
  A 0.85 0.84 -88.4 0 1 421.25 527.85
  L 422.42 512.27
  A 0.50 0.50 0.0 0 1 422.97 511.81
  Q 423.33 511.85 423.58 512.14
  Q 428.47 517.95 433.83 524.12
  Q 434.68 525.10 433.39 525.21
  L 432.87 525.26
  A 2.36 2.35 64.7 0 1 431.03 524.60
  L 429.18 522.80
  Q 428.79 522.41 428.25 522.57
  L 424.52 523.68
  A 1.06 1.05 84.7 0 0 423.77 524.59
  Z
  M 424.12 521.16
  A 0.37 0.37 0.0 0 0 424.61 521.52
  L 427.12 520.60
  A 0.37 0.37 0.0 0 0 427.27 520.00
  L 424.85 517.29
  A 0.37 0.37 0.0 0 0 424.20 517.53
  L 424.12 521.16
  Z"
/>
<path fill="#ffffff" d="
  M 409.50 527.25
  L 410.09 531.42
  A 0.67 0.67 0.0 0 1 409.56 532.17
  L 409.19 532.24
  A 0.93 0.93 0.0 0 1 408.11 531.60
  Q 405.92 524.59 404.48 517.14
  A 0.81 0.80 -15.1 0 1 405.01 516.23
  C 408.44 515.01 413.75 513.68 415.81 517.54
  Q 417.09 519.93 416.03 522.54
  Q 414.86 525.41 410.49 525.95
  Q 409.33 526.10 409.50 527.25
  Z
  M 407.38 518.99
  L 408.39 523.15
  A 1.38 1.38 0.0 0 0 410.06 524.17
  L 411.45 523.83
  A 3.41 3.22 -13.6 0 0 414.00 519.90
  L 413.86 519.32
  A 3.41 3.22 -13.6 0 0 409.79 516.99
  L 408.40 517.33
  A 1.38 1.38 0.0 0 0 407.38 518.99
  Z"
/>
<path fill="#ffffff" d="
  M 321.65 526.86
  Q 320.74 527.84 319.90 528.92
  Q 319.20 529.82 318.10 529.83
  Q 317.73 529.83 317.51 529.17
  A 0.66 0.65 -36.7 0 1 317.60 528.59
  L 327.04 515.51
  A 0.59 0.59 0.0 0 1 328.11 515.77
  L 330.42 531.68
  A 0.71 0.70 67.2 0 1 330.16 532.34
  Q 329.73 532.70 329.35 532.54
  Q 328.51 532.18 328.25 531.29
  Q 327.82 529.77 327.43 528.31
  A 1.29 1.27 89.9 0 0 326.52 527.39
  L 323.06 526.45
  A 1.40 1.40 0.0 0 0 321.65 526.86
  Z
  M 324.33 524.71
  L 326.56 524.90
  A 0.26 0.26 0.0 0 0 326.84 524.66
  L 326.85 524.50
  A 3.02 1.32 -85.1 0 0 325.80 521.38
  L 325.68 521.37
  A 3.02 1.32 -85.1 0 0 324.10 524.27
  L 324.09 524.43
  A 0.26 0.26 0.0 0 0 324.33 524.71
  Z"
/>
<path fill="#feb81c" d="
  M 407.38 518.99
  A 1.38 1.38 0.0 0 1 408.40 517.33
  L 409.79 516.99
  A 3.41 3.22 -13.6 0 1 413.86 519.32
  L 414.00 519.90
  A 3.41 3.22 -13.6 0 1 411.45 523.83
  L 410.06 524.17
  A 1.38 1.38 0.0 0 1 408.39 523.15
  L 407.38 518.99
  Z"
/>
<path fill="#feb81c" d="
  M 424.12 521.16
  L 424.20 517.53
  A 0.37 0.37 0.0 0 1 424.85 517.29
  L 427.27 520.00
  A 0.37 0.37 0.0 0 1 427.12 520.60
  L 424.61 521.52
  A 0.37 0.37 0.0 0 1 424.12 521.16
  Z"
/>
<path fill="#ffffff" d="
  M 338.09 518.44
  A 1.21 1.21 0.0 0 1 339.46 517.41
  L 343.63 518.01
  A 8.28 8.14 8.2 0 1 350.66 527.25
  L 350.62 527.53
  A 8.28 8.14 8.2 0 1 341.26 534.40
  L 337.10 533.80
  A 1.21 1.21 0.0 0 1 336.07 532.43
  L 338.09 518.44
  Z
  M 340.14 520.34
  L 338.74 531.13
  A 0.71 0.71 0.0 0 0 339.35 531.92
  L 341.45 532.20
  A 6.13 5.99 7.4 0 0 348.30 527.05
  L 348.34 526.73
  A 6.13 5.99 7.4 0 0 343.04 520.00
  L 340.93 519.73
  A 0.71 0.71 0.0 0 0 340.14 520.34
  Z"
/>
<path fill="#ffffff" d="
  M 381.24 525.01
  L 381.86 535.02
  A 0.70 0.70 0.0 0 1 381.22 535.77
  L 380.71 535.81
  Q 380.03 535.88 379.95 535.20
  L 378.57 522.43
  Q 378.05 517.61 381.76 520.74
  Q 384.96 523.44 388.41 527.58
  Q 389.74 529.18 389.77 527.10
  Q 389.81 523.52 389.19 519.60
  A 0.88 0.87 -7.9 0 1 389.95 518.60
  L 390.26 518.56
  A 1.05 1.04 -5.8 0 1 391.43 519.51
  L 392.66 533.47
  Q 392.83 535.36 391.49 534.01
  L 382.15 524.60
  Q 381.15 523.60 381.24 525.01
  Z"
/>
<path fill="#feb81c" d="
  M 340.14 520.34
  A 0.71 0.71 0.0 0 1 340.93 519.73
  L 343.04 520.00
  A 6.13 5.99 7.4 0 1 348.34 526.73
  L 348.30 527.05
  A 6.13 5.99 7.4 0 1 341.45 532.20
  L 339.35 531.92
  A 0.71 0.71 0.0 0 1 338.74 531.13
  L 340.14 520.34
  Z"
/>
<path fill="#ffffff" d="
  M 366.53 522.52
  L 366.57 525.50
  A 0.46 0.46 0.0 0 0 367.02 525.96
  L 373.03 526.20
  A 0.46 0.46 0.0 0 1 373.46 526.58
  L 373.66 527.81
  A 0.46 0.46 0.0 0 1 373.22 528.34
  L 366.99 528.46
  A 0.46 0.46 0.0 0 0 366.54 528.92
  L 366.49 533.65
  A 0.46 0.46 0.0 0 0 366.97 534.12
  L 373.55 533.94
  A 0.46 0.46 0.0 0 1 374.02 534.46
  L 373.81 535.86
  A 0.46 0.46 0.0 0 1 373.37 536.25
  L 364.57 536.55
  A 0.46 0.46 0.0 0 1 364.10 536.10
  L 364.05 520.31
  A 0.46 0.46 0.0 0 1 364.51 519.85
  L 373.61 519.90
  A 0.46 0.46 0.0 0 1 374.07 520.40
  L 373.93 521.75
  A 0.46 0.46 0.0 0 1 373.47 522.16
  L 366.99 522.06
  A 0.46 0.46 0.0 0 0 366.53 522.52
  Z"
/>
<path fill="#feb81c" d="
  M 324.33 524.71
  A 0.26 0.26 0.0 0 1 324.09 524.43
  L 324.10 524.27
  A 3.02 1.32 -85.1 0 1 325.68 521.37
  L 325.80 521.38
  A 3.02 1.32 -85.1 0 1 326.85 524.50
  L 326.84 524.66
  A 0.26 0.26 0.0 0 1 326.56 524.90
  L 324.33 524.71
  Z"
/>
</svg>
