<?xml version="1.0" encoding="UTF-8" standalone="no"?>
<!DOCTYPE svg PUBLIC "-//W3C//DTD SVG 1.1//EN" "http://www.w3.org/Graphics/SVG/1.1/DTD/svg11.dtd">
<svg xmlns="http://www.w3.org/2000/svg" version="1.1" viewBox="0.00 0.00 740.00 738.00" width="740.00" height="738.00">
<g stroke-width="2.00" fill="none" stroke-linecap="butt">
<path stroke="#8d6a23" vector-effect="non-scaling-stroke" d="
  M 692.6295 365.3585
  A 320.00 319.87 0.1 0 0 373.1883 44.9305
  A 320.00 319.87 0.1 0 0 52.6305 364.2415
  A 320.00 319.87 0.1 0 0 372.0717 684.6695
  A 320.00 319.87 0.1 0 0 692.6295 365.3585"
/>
<path stroke="#1f1d26" vector-effect="non-scaling-stroke" d="
  M 733.92 305.36
  Q 734.21 298.33 734.08 293.39
  C 733.89 286.16 733.84 278.13 733.86 273.41
  A 105.36 1.99 -89.9 0 0 733.88 258.51
  Q 733.88 250.84 733.87 241.77
  Q 733.87 239.87 731.98 239.87
  L 731.41 239.87
  Q 729.59 239.87 729.46 241.69
  Q 728.55 254.10 729.01 267.66
  Q 729.13 271.08 729.02 274.38
  Q 728.90 277.96 728.98 281.10
  Q 729.16 287.32 728.84 293.01
  Q 728.82 293.28 728.99 293.50
  Q 729.07 293.60 729.07 293.74
  Q 729.11 299.27 729.38 304.54
  Q 729.50 306.68 731.60 307.09
  Q 731.86 307.15 732.13 307.14
  A 1.86 1.86 0.0 0 0 733.92 305.36"
/>
<path stroke="#906b20" vector-effect="non-scaling-stroke" d="
  M 686.4866 360.9652
  A 313.89 313.74 -0.7 0 0 368.7870 51.0834
  A 313.89 313.74 -0.7 0 0 58.7534 368.6348
  A 313.89 313.74 -0.7 0 0 376.4530 678.5166
  A 313.89 313.74 -0.7 0 0 686.4866 360.9652"
/>
<path stroke="#906b20" vector-effect="non-scaling-stroke" d="
  M 676.7125 369.5771
  A 304.13 304.01 0.9 0 0 377.3952 60.8275
  A 304.13 304.01 0.9 0 0 68.5275 360.0229
  A 304.13 304.01 0.9 0 0 367.8448 668.7725
  A 304.13 304.01 0.9 0 0 676.7125 369.5771"
/>
<path stroke="#906b20" vector-effect="non-scaling-stroke" d="
  M 358.6712 157.2357
  A 34.76 34.63 84.6 0 0 389.8763 119.3710
  A 34.76 34.63 84.6 0 0 352.1288 88.0243
  A 34.76 34.63 84.6 0 0 320.9237 125.8890
  A 34.76 34.63 84.6 0 0 358.6712 157.2357"
/>
<path stroke="#906b20" vector-effect="non-scaling-stroke" d="
  M 408.07 144.88
  Q 411.88 153.03 419.47 158.35
  Q 429.47 165.35 442.88 164.31
  A 0.61 0.61 0.0 0 0 443.44 163.83
  L 445.61 154.30
  A 0.39 0.39 0.0 0 0 445.13 153.84
  C 431.80 157.36 419.89 150.13 416.11 137.02
  C 412.44 124.32 419.72 109.35 432.94 105.55
  Q 445.51 101.93 455.66 110.94
  Q 455.72 110.99 455.74 110.92
  Q 457.18 105.48 458.08 100.39
  Q 458.10 100.28 458.00 100.22
  Q 442.38 91.14 426.46 97.32
  C 419.50 100.02 412.91 105.68 409.35 112.12
  Q 400.36 128.40 408.07 144.88"
/>
<path stroke="#906b20" vector-effect="non-scaling-stroke" d="
  M 296.58 129.70
  C 298.37 125.63 299.20 121.88 298.23 117.48
  C 296.47 109.52 289.05 104.02 281.05 103.83
  Q 276.89 103.73 271.93 105.75
  Q 261.26 110.08 250.74 114.08
  A 0.67 0.66 68.7 0 0 250.36 114.95
  L 274.53 176.76
  Q 274.65 177.06 274.95 176.94
  Q 285.15 172.70 296.19 168.61
  Q 301.18 166.76 304.32 164.31
  C 311.15 158.98 313.43 149.03 309.86 141.21
  Q 305.92 132.62 297.05 130.61
  Q 296.26 130.43 296.58 129.70"
/>
<path stroke="#906b20" vector-effect="non-scaling-stroke" d="
  M 458.38 172.31
  A 0.39 0.39 0.0 0 0 458.82 172.27
  L 472.66 161.14
  A 0.39 0.39 0.0 0 1 473.09 161.11
  L 492.13 171.66
  A 0.39 0.39 0.0 0 1 492.33 172.05
  L 490.40 189.61
  A 0.39 0.39 0.0 0 0 490.59 190.00
  L 498.87 194.68
  A 0.39 0.39 0.0 0 0 499.45 194.38
  L 507.66 122.10
  A 0.39 0.39 0.0 0 0 507.03 121.75
  L 450.12 166.94
  A 0.39 0.39 0.0 0 0 450.17 167.59
  L 458.38 172.31"
/>
<path stroke="#906b20" vector-effect="non-scaling-stroke" d="
  M 238.53 169.57
  Q 214.30 164.23 188.10 158.33
  Q 186.67 158.01 185.49 158.91
  Q 182.91 160.87 180.34 163.07
  A 1.02 1.02 0.0 0 0 180.20 164.48
  L 220.92 215.80
  Q 221.38 216.37 221.94 215.92
  L 228.06 211.07
  A 0.70 0.70 0.0 0 0 228.17 210.09
  L 197.96 172.02
  Q 197.02 170.83 198.50 171.14
  L 262.31 184.37
  Q 263.38 184.59 262.70 183.73
  L 220.97 131.07
  Q 220.84 130.90 220.68 131.03
  L 213.94 136.49
  Q 213.68 136.70 213.89 136.97
  L 239.04 168.75
  Q 239.93 169.88 238.53 169.57"
/>
<path stroke="#906b20" vector-effect="non-scaling-stroke" d="
  M 555.32 168.39
  A 0.41 0.40 39.4 0 1 555.91 168.34
  L 567.51 178.74
  Q 568.10 179.27 568.64 178.68
  L 573.86 172.88
  A 0.82 0.81 42.3 0 0 573.80 171.73
  L 542.52 143.68
  Q 542.33 143.51 542.16 143.70
  L 536.28 150.25
  A 0.35 0.35 0.0 0 0 536.30 150.75
  L 547.41 160.72
  Q 548.43 161.64 547.51 162.66
  L 510.04 204.40
  A 0.36 0.35 42.1 0 0 510.07 204.90
  L 516.78 211.06
  Q 517.02 211.27 517.23 211.04
  Q 536.04 190.24 554.64 169.22
  Q 554.98 168.83 555.32 168.39"
/>
<path stroke="#906b20" vector-effect="non-scaling-stroke" d="
  M 560.54 364.80
  A 187.92 187.92 0.0 0 0 372.62 176.88
  A 187.92 187.92 0.0 0 0 184.70 364.80
  A 187.92 187.92 0.0 0 0 372.62 552.72
  A 187.92 187.92 0.0 0 0 560.54 364.80"
/>
<path stroke="#906b20" vector-effect="non-scaling-stroke" d="
  M 596.35 216.89
  A 0.60 0.60 0.0 0 1 597.19 217.05
  L 605.91 229.84
  A 0.60 0.60 0.0 0 0 606.75 229.99
  L 613.49 225.25
  A 0.60 0.60 0.0 0 0 613.64 224.42
  L 589.86 189.89
  A 0.60 0.60 0.0 0 0 589.01 189.75
  L 582.36 194.54
  A 0.60 0.60 0.0 0 0 582.22 195.36
  L 590.87 208.06
  A 0.60 0.60 0.0 0 1 590.72 208.89
  L 544.07 241.01
  A 0.60 0.60 0.0 0 0 543.92 241.84
  L 548.77 248.93
  A 0.60 0.60 0.0 0 0 549.61 249.09
  L 596.35 216.89"
/>
<path stroke="#906b20" vector-effect="non-scaling-stroke" d="
  M 198.6784 250.3820
  A 34.80 34.61 29.7 0 0 185.5978 203.0767
  A 34.80 34.61 29.7 0 0 138.2216 215.8980
  A 34.80 34.61 29.7 0 0 151.3022 263.2033
  A 34.80 34.61 29.7 0 0 198.6784 250.3820"
/>
<path stroke="#906b20" vector-effect="non-scaling-stroke" d="
  M 636.9384 279.1630
  A 34.89 34.51 -16.0 0 0 593.8878 255.6069
  A 34.89 34.51 -16.0 0 0 569.8616 298.3970
  A 34.89 34.51 -16.0 0 0 612.9122 321.9531
  A 34.89 34.51 -16.0 0 0 636.9384 279.1630"
/>
<path stroke="#906b20" vector-effect="non-scaling-stroke" d="
  M 138.82 284.76
  Q 132.20 272.02 118.83 274.82
  C 111.38 276.38 106.75 282.38 104.87 289.52
  Q 101.91 300.74 98.77 311.55
  A 0.73 0.73 0.0 0 0 99.28 312.46
  L 163.15 330.24
  A 0.43 0.42 -74.9 0 0 163.68 329.93
  Q 165.71 321.90 168.29 313.33
  Q 171.08 304.07 171.22 300.51
  C 171.90 284.16 152.09 273.55 139.44 284.87
  A 0.40 0.39 -34.2 0 1 138.82 284.76"
/>
<path stroke="#916d19" vector-effect="non-scaling-stroke" d="
  M 198.82 541.14
  A 0.66 0.66 0.0 0 1 199.76 541.12
  L 205.57 546.77
  A 0.66 0.66 0.0 0 0 206.52 546.74
  L 207.64 545.50
  A 0.66 0.66 0.0 0 0 207.61 544.59
  L 201.86 539.06
  A 0.66 0.66 0.0 0 1 201.83 538.13
  L 204.95 534.73
  A 0.66 0.66 0.0 0 1 205.90 534.70
  L 212.02 540.63
  A 0.66 0.66 0.0 0 0 212.96 540.61
  L 214.12 539.40
  A 0.66 0.66 0.0 0 0 214.11 538.47
  L 205.76 530.34
  A 0.66 0.66 0.0 0 0 204.82 530.36
  L 190.43 545.35
  A 0.66 0.66 0.0 0 0 190.39 546.21
  L 191.56 547.72
  A 0.66 0.66 0.0 0 0 192.56 547.77
  L 198.82 541.14"
/>
<path stroke="#916d19" vector-effect="non-scaling-stroke" d="
  M 535.40 539.43
  A 0.64 0.64 0.0 0 1 535.42 538.53
  L 541.46 532.72
  A 0.64 0.64 0.0 0 0 541.52 531.87
  L 540.47 530.52
  A 0.64 0.64 0.0 0 0 539.53 530.45
  L 531.05 538.47
  A 0.64 0.64 0.0 0 0 531.02 539.37
  L 545.42 554.47
  A 0.64 0.64 0.0 0 0 546.32 554.49
  L 554.81 546.32
  A 0.64 0.64 0.0 0 0 554.88 545.47
  L 553.74 544.01
  A 0.64 0.64 0.0 0 0 552.79 543.94
  L 546.55 550.06
  A 0.64 0.64 0.0 0 1 545.64 550.05
  L 541.24 545.52
  A 0.64 0.64 0.0 0 1 541.25 544.62
  L 546.92 538.97
  A 0.64 0.64 0.0 0 0 546.94 538.09
  L 545.87 536.93
  A 0.64 0.64 0.0 0 0 544.96 536.90
  L 539.19 542.47
  A 0.64 0.64 0.0 0 1 538.29 542.45
  L 535.40 539.43"
/>
<path stroke="#916d19" vector-effect="non-scaling-stroke" d="
  M 520.82 550.82
  A 0.66 0.66 0.0 0 1 521.79 550.88
  L 533.11 564.89
  A 0.66 0.66 0.0 0 0 534.03 564.99
  L 535.51 563.84
  A 0.66 0.66 0.0 0 0 535.61 562.91
  L 524.36 549.07
  A 0.66 0.66 0.0 0 1 524.46 548.14
  L 527.63 545.54
  A 0.66 0.66 0.0 0 0 527.76 544.66
  L 526.82 543.23
  A 0.66 0.66 0.0 0 0 525.85 543.08
  L 515.81 551.24
  A 0.66 0.66 0.0 0 0 515.69 552.13
  L 516.76 553.63
  A 0.66 0.66 0.0 0 0 517.75 553.73
  L 520.82 550.82"
/>
<path stroke="#916d19" vector-effect="non-scaling-stroke" d="
  M 214.97 554.20
  L 221.00 559.11
  Q 221.85 559.79 222.71 559.13
  Q 222.97 558.93 223.10 558.63
  Q 223.66 557.34 222.56 556.46
  L 217.39 552.36
  A 1.00 0.99 -52.3 0 1 217.22 550.98
  L 219.37 548.18
  Q 219.94 547.43 220.67 548.03
  L 226.62 552.91
  Q 227.54 553.66 228.29 552.75
  L 228.71 552.25
  A 1.26 1.26 0.0 0 0 228.53 550.46
  L 219.79 543.40
  A 0.43 0.42 -51.1 0 0 219.19 543.47
  L 206.08 559.66
  A 0.89 0.87 -51.0 0 0 206.20 560.90
  L 214.76 567.87
  Q 215.75 568.68 216.55 567.67
  L 216.92 567.20
  A 1.30 1.30 0.0 0 0 216.71 565.38
  L 210.25 560.15
  Q 210.10 560.03 210.21 559.86
  Q 212.13 556.96 214.66 554.23
  Q 214.80 554.07 214.97 554.20"
/>
<path stroke="#916d19" vector-effect="non-scaling-stroke" d="
  M 514.58 575.47
  A 0.66 0.66 0.0 0 1 513.65 575.30
  L 510.11 570.08
  A 0.66 0.66 0.0 0 1 510.28 569.16
  L 516.78 564.73
  A 0.66 0.66 0.0 0 0 517.00 563.88
  L 516.21 562.39
  A 0.66 0.66 0.0 0 0 515.26 562.15
  L 508.49 566.75
  A 0.66 0.66 0.0 0 1 507.56 566.55
  L 505.44 563.09
  A 0.66 0.66 0.0 0 1 505.63 562.20
  L 512.41 557.58
  A 0.66 0.66 0.0 0 0 512.61 556.71
  L 511.74 555.16
  A 0.66 0.66 0.0 0 0 510.79 554.94
  L 501.17 561.58
  A 0.66 0.66 0.0 0 0 501.00 562.49
  L 512.79 579.69
  A 0.66 0.66 0.0 0 0 513.71 579.86
  L 523.42 573.15
  A 0.66 0.66 0.0 0 0 523.60 572.24
  L 522.56 570.66
  A 0.66 0.66 0.0 0 0 521.63 570.49
  L 514.58 575.47"
/>
<path stroke="#916d19" vector-effect="non-scaling-stroke" d="
  M 233.72 578.34
  A 0.74 0.74 0.0 0 0 233.51 577.34
  L 227.23 573.10
  A 0.74 0.74 0.0 0 1 227.03 572.07
  L 236.93 557.56
  A 0.74 0.74 0.0 0 0 236.81 556.59
  L 235.54 555.47
  A 0.74 0.74 0.0 0 0 234.44 555.61
  L 222.56 572.87
  A 0.74 0.74 0.0 0 0 222.76 573.91
  L 231.79 580.00
  A 0.74 0.74 0.0 0 0 232.84 579.78
  L 233.72 578.34"
/>
<path stroke="#916d19" vector-effect="non-scaling-stroke" d="
  M 252.0711 567.6476
  A 1.07 1.07 0.0 0 0 251.7076 566.1787
  L 250.7828 565.6209
  A 1.07 1.07 0.0 0 0 249.3139 565.9844
  L 238.8489 583.3324
  A 1.07 1.07 0.0 0 0 239.2124 584.8013
  L 240.1372 585.3591
  A 1.07 1.07 0.0 0 0 241.6061 584.9956
  L 252.0711 567.6476"
/>
<path stroke="#916d19" vector-effect="non-scaling-stroke" d="
  M 499.13 579.68
  C 502.46 585.58 494.73 589.54 491.60 584.23
  Q 488.30 578.62 484.88 572.33
  Q 484.28 571.22 483.23 571.91
  L 482.60 572.31
  A 1.34 1.34 0.0 0 0 482.17 574.10
  Q 485.22 579.42 488.40 585.27
  C 490.23 588.63 493.34 590.78 497.28 589.70
  Q 502.53 588.24 503.19 583.21
  Q 503.53 580.63 501.14 576.57
  Q 498.15 571.51 495.29 566.36
  A 1.08 1.07 58.0 0 0 493.73 566.00
  L 493.13 566.42
  Q 492.08 567.17 492.71 568.30
  Q 495.95 574.08 499.13 579.68"
/>
<path stroke="#916d19" vector-effect="non-scaling-stroke" d="
  M 261.70 592.98
  C 252.18 591.91 252.88 578.62 261.59 576.95
  Q 265.83 576.13 268.74 579.32
  Q 269.73 580.40 270.32 579.05
  L 270.79 577.97
  Q 271.26 576.88 270.31 576.18
  Q 262.95 570.74 255.76 576.02
  C 247.79 581.86 251.22 594.05 260.36 596.18
  Q 261.57 596.46 261.98 595.30
  L 262.41 594.12
  Q 262.77 593.10 261.70 592.98"
/>
<path stroke="#916d19" vector-effect="non-scaling-stroke" d="
  M 477.60 599.38
  C 485.99 593.43 482.67 579.89 472.31 578.74
  C 464.69 577.89 458.02 584.77 459.88 592.24
  Q 462.41 602.45 473.55 601.34
  Q 474.09 601.29 474.39 601.74
  Q 475.10 602.76 475.41 604.05
  Q 475.80 605.62 477.23 604.88
  L 477.67 604.66
  Q 478.63 604.18 478.24 603.18
  L 477.24 600.61
  A 1.04 1.04 0.0 0 1 477.60 599.38"
/>
<path stroke="#916d19" vector-effect="non-scaling-stroke" d="
  M 279.8567 581.8499
  A 1.20 1.20 0.0 0 0 279.2348 580.2709
  L 278.5011 579.9519
  A 1.20 1.20 0.0 0 0 276.9222 580.5739
  L 268.9233 598.9701
  A 1.20 1.20 0.0 0 0 269.5452 600.5491
  L 270.2789 600.8681
  A 1.20 1.20 0.0 0 0 271.8578 600.2461
  L 279.8567 581.8499"
/>
<path stroke="#916d19" vector-effect="non-scaling-stroke" d="
  M 286.77 584.26
  L 279.98 603.99
  A 0.67 0.67 0.0 0 0 280.39 604.84
  L 286.77 607.04
  A 11.04 10.81 19.0 0 0 300.73 600.41
  L 300.92 599.86
  A 11.04 10.81 19.0 0 0 294.00 586.05
  L 287.62 583.85
  A 0.67 0.67 0.0 0 0 286.77 584.26"
/>
<path stroke="#916d19" vector-effect="non-scaling-stroke" d="
  M 446.34 605.51
  A 0.49 0.49 0.0 0 1 446.68 605.10
  L 452.96 603.06
  A 0.49 0.49 0.0 0 1 453.48 603.21
  L 456.92 607.17
  A 0.49 0.49 0.0 0 0 457.39 607.33
  L 459.73 606.83
  A 0.49 0.49 0.0 0 0 460.00 606.04
  L 445.32 588.69
  A 0.49 0.49 0.0 0 0 444.46 588.97
  L 442.78 611.62
  A 0.49 0.49 0.0 0 0 443.45 612.11
  L 445.39 611.33
  A 0.49 0.49 0.0 0 0 445.69 610.93
  L 446.34 605.51"
/>
<path stroke="#916d19" vector-effect="non-scaling-stroke" d="
  M 316.57 609.93
  A 0.34 0.34 0.0 0 1 316.82 610.19
  L 318.03 615.97
  A 0.34 0.34 0.0 0 0 318.30 616.23
  L 320.61 616.68
  A 0.34 0.34 0.0 0 0 321.01 616.29
  L 317.45 593.34
  A 0.34 0.34 0.0 0 0 316.84 593.20
  L 303.23 611.92
  A 0.34 0.34 0.0 0 0 303.41 612.44
  L 305.89 613.15
  A 0.34 0.34 0.0 0 0 306.26 613.03
  L 309.61 608.40
  A 0.34 0.34 0.0 0 1 309.96 608.27
  L 316.57 609.93"
/>
<path stroke="#916d19" vector-effect="non-scaling-stroke" d="
  M 427.61 608.22
  C 432.97 607.53 438.10 604.52 436.25 598.27
  C 434.82 593.42 430.37 592.19 425.89 593.50
  Q 423.25 594.27 420.91 594.70
  Q 419.99 594.87 420.21 595.78
  L 424.94 615.67
  Q 425.13 616.45 425.93 616.35
  L 427.31 616.17
  A 0.85 0.84 80.4 0 0 428.03 615.15
  L 426.75 609.44
  Q 426.51 608.36 427.61 608.22"
/>
<path stroke="#916d19" vector-effect="non-scaling-stroke" d="
  M 331.24 596.80
  L 328.41 617.43
  A 0.77 0.77 0.0 0 0 329.07 618.29
  L 335.48 619.17
  A 11.28 11.12 7.8 0 0 348.17 609.69
  L 348.18 609.57
  A 11.28 11.12 7.8 0 0 338.52 597.02
  L 332.11 596.14
  A 0.77 0.77 0.0 0 0 331.24 596.80"
/>
<path stroke="#916d19" vector-effect="non-scaling-stroke" d="
  M 400.81 611.15
  Q 400.91 612.18 400.19 611.44
  L 388.60 599.49
  A 1.81 1.81 0.0 0 0 385.53 600.40
  Q 385.43 600.88 385.48 601.38
  Q 386.38 610.52 387.34 620.38
  Q 387.46 621.60 388.69 621.51
  L 389.22 621.47
  Q 390.32 621.38 390.22 620.28
  L 388.88 605.51
  Q 388.78 604.42 389.56 605.20
  L 404.06 619.71
  Q 404.64 620.30 404.57 619.48
  L 402.70 599.04
  Q 402.58 597.74 401.28 597.85
  L 400.82 597.88
  A 1.20 1.20 0.0 0 0 399.73 599.18
  L 400.81 611.15"
/>
<path stroke="#916d19" vector-effect="non-scaling-stroke" d="
  M 369.37 611.89
  A 0.65 0.65 0.0 0 1 370.02 611.24
  L 377.94 611.19
  A 0.65 0.65 0.0 0 0 378.59 610.56
  L 378.64 608.90
  A 0.65 0.65 0.0 0 0 377.99 608.23
  L 369.96 608.21
  A 0.65 0.65 0.0 0 1 369.31 607.55
  L 369.35 603.38
  A 0.65 0.65 0.0 0 1 370.00 602.74
  L 378.42 602.74
  A 0.65 0.65 0.0 0 0 379.07 602.08
  L 379.06 600.39
  A 0.65 0.65 0.0 0 0 378.41 599.75
  L 366.74 599.70
  A 0.65 0.65 0.0 0 0 366.09 600.35
  L 366.14 621.35
  A 0.65 0.65 0.0 0 0 366.79 622.00
  L 378.61 621.92
  A 0.65 0.65 0.0 0 0 379.25 621.30
  L 379.33 619.33
  A 0.65 0.65 0.0 0 0 378.67 618.65
  L 370.07 618.77
  A 0.65 0.65 0.0 0 1 369.42 618.13
  L 369.37 611.89"
/>
<path stroke="#906b20" vector-effect="non-scaling-stroke" d="
  M 357.2010 147.7655
  A 25.19 23.94 85.9 0 0 379.2787 120.9284
  A 25.19 23.94 85.9 0 0 353.5990 97.5145
  A 25.19 23.94 85.9 0 0 331.5213 124.3516
  A 25.19 23.94 85.9 0 0 357.2010 147.7655"
/>
<path stroke="#906b20" vector-effect="non-scaling-stroke" d="
  M 262.64 119.43
  L 269.16 136.05
  A 0.66 0.66 0.0 0 0 270.02 136.43
  L 282.46 131.55
  A 9.81 9.48 -21.4 0 0 288.14 119.14
  L 288.06 118.94
  A 9.81 9.48 -21.4 0 0 275.47 113.69
  L 263.02 118.57
  A 0.66 0.66 0.0 0 0 262.64 119.43"
/>
<path stroke="#906b20" vector-effect="non-scaling-stroke" d="
  M 272.67 145.07
  L 280.44 164.99
  A 0.46 0.46 0.0 0 0 281.03 165.25
  L 293.98 160.20
  A 11.52 11.05 -21.3 0 0 300.70 145.72
  L 300.63 145.54
  A 11.52 11.05 -21.3 0 0 285.88 139.43
  L 272.93 144.48
  A 0.46 0.46 0.0 0 0 272.67 145.07"
/>
<path stroke="#906b20" vector-effect="non-scaling-stroke" d="
  M 480.30 154.74
  A 0.33 0.33 0.0 0 0 480.35 155.28
  L 493.34 162.49
  A 0.33 0.33 0.0 0 0 493.83 162.24
  L 496.47 142.15
  A 0.33 0.33 0.0 0 0 495.93 141.85
  L 480.30 154.74"
/>
<path stroke="#906b20" vector-effect="non-scaling-stroke" d="
  M 551.11 364.80
  A 178.48 178.48 0.0 0 0 372.63 186.32
  A 178.48 178.48 0.0 0 0 194.15 364.80
  A 178.48 178.48 0.0 0 0 372.63 543.28
  A 178.48 178.48 0.0 0 0 551.11 364.80"
/>
<path stroke="#926e27" vector-effect="non-scaling-stroke" d="
  M 537.36 364.80
  A 164.74 164.74 0.0 0 0 372.62 200.06
  A 164.74 164.74 0.0 0 0 207.88 364.80
  A 164.74 164.74 0.0 0 0 372.62 529.54
  A 164.74 164.74 0.0 0 0 537.36 364.80"
/>
<path stroke="#906b20" vector-effect="non-scaling-stroke" d="
  M 189.9306 246.3449
  A 25.22 23.92 31.6 0 0 180.9837 212.7567
  A 25.22 23.92 31.6 0 0 146.9694 219.9151
  A 25.22 23.92 31.6 0 0 155.9163 253.5033
  A 25.22 23.92 31.6 0 0 189.9306 246.3449"
/>
<path stroke="#926e27" vector-effect="non-scaling-stroke" d="
  M 339.56 366.70
  Q 356.58 366.83 378.15 366.69
  C 404.45 366.51 425.82 379.90 430.99 407.23
  Q 434.10 423.65 430.97 440.84
  A 0.38 0.38 0.0 0 0 431.36 441.29
  Q 444.03 440.59 452.93 439.50
  Q 455.00 439.25 455.19 437.18
  Q 456.53 421.89 455.05 409.28
  C 453.09 392.55 445.80 377.87 433.40 366.41
  Q 425.78 359.37 413.23 355.29
  A 0.60 0.60 0.0 0 1 413.19 354.16
  C 422.20 350.43 429.31 345.77 435.02 338.07
  C 445.82 323.52 448.17 303.55 446.13 285.66
  A 1.05 1.05 0.0 0 0 445.21 284.73
  Q 435.20 283.51 423.18 283.40
  A 0.84 0.83 -5.3 0 0 422.35 284.39
  C 426.30 304.65 422.81 330.17 402.65 340.79
  Q 391.84 346.49 378.82 346.92
  Q 362.74 347.46 339.16 347.17
  A 0.43 0.43 0.0 0 1 338.74 346.74
  L 338.71 247.30
  A 0.43 0.43 0.0 0 1 339.14 246.87
  Q 359.40 246.88 377.76 246.89
  C 389.01 246.91 401.82 249.01 409.84 257.17
  A 2.71 2.69 -22.2 0 0 411.76 257.97
  L 435.74 257.87
  A 0.53 0.53 0.0 0 0 436.21 257.10
  Q 425.46 235.85 402.22 229.80
  Q 393.38 227.50 387.75 227.48
  Q 353.92 227.39 316.21 227.43
  Q 315.63 227.43 315.63 228.02
  L 315.67 501.25
  Q 315.67 502.29 316.71 502.29
  Q 347.78 502.19 379.74 502.27
  C 406.69 502.33 432.62 491.78 445.69 467.10
  A 0.26 0.26 0.0 0 0 445.46 466.72
  L 419.80 466.74
  A 1.83 1.81 -68.1 0 0 418.48 467.31
  C 407.88 478.74 393.22 482.69 377.52 482.71
  Q 356.79 482.75 339.11 482.71
  A 0.41 0.41 0.0 0 1 338.70 482.30
  L 338.76 367.49
  Q 338.76 366.69 339.56 366.70"
/>
<path stroke="#926e27" vector-effect="non-scaling-stroke" d="
  M 313.15 347.71
  A 0.57 0.57 0.0 0 0 312.58 347.14
  L 291.49 347.23
  A 0.57 0.57 0.0 0 1 290.92 346.66
  L 290.87 281.50
  A 0.57 0.57 0.0 0 1 291.44 280.93
  L 312.51 280.98
  A 0.57 0.57 0.0 0 0 313.08 280.41
  L 313.17 260.92
  A 0.57 0.57 0.0 0 0 312.60 260.35
  L 268.31 260.36
  A 0.57 0.57 0.0 0 0 267.74 260.93
  L 267.75 463.75
  A 0.57 0.57 0.0 0 0 268.32 464.32
  L 312.54 464.29
  A 0.57 0.57 0.0 0 0 313.11 463.72
  L 313.16 444.26
  A 0.57 0.57 0.0 0 0 312.59 443.69
  L 291.49 443.68
  A 0.57 0.57 0.0 0 1 290.92 443.11
  L 290.86 367.02
  A 0.57 0.57 0.0 0 1 291.43 366.45
  L 312.59 366.47
  A 0.57 0.57 0.0 0 0 313.16 365.90
  L 313.15 347.71"
/>
<path stroke="#926e27" vector-effect="non-scaling-stroke" d="
  M 470.58 356.71
  Q 468.75 356.17 470.56 355.55
  C 484.68 350.69 493.15 338.59 495.29 323.84
  C 497.79 306.64 493.73 288.11 480.73 276.19
  Q 465.22 261.98 443.15 260.84
  Q 435.32 260.44 426.11 260.47
  Q 383.44 260.58 341.93 260.36
  A 0.69 0.68 -89.6 0 0 341.24 261.05
  L 341.22 280.30
  A 0.67 0.67 0.0 0 0 341.89 280.97
  Q 383.84 280.95 427.79 280.97
  C 433.16 280.98 438.51 281.37 443.90 281.94
  Q 449.20 282.50 454.69 284.63
  Q 466.88 289.36 469.50 302.39
  Q 472.09 315.34 469.54 328.00
  C 465.47 348.17 446.33 347.50 429.97 348.03
  Q 429.44 348.05 429.00 348.33
  L 419.38 354.48
  A 0.20 0.20 0.0 0 0 419.41 354.83
  Q 429.69 359.14 437.25 366.57
  C 437.92 367.22 438.89 367.89 439.83 367.96
  C 455.89 369.20 472.37 373.45 476.68 391.47
  Q 479.37 402.75 477.23 418.58
  C 475.94 428.10 471.53 435.55 462.18 439.45
  Q 457.28 441.50 452.51 442.13
  Q 441.12 443.63 429.70 443.67
  Q 387.66 443.81 342.21 443.72
  A 0.98 0.98 0.0 0 0 341.23 444.70
  L 341.22 463.28
  A 1.02 1.01 -0.0 0 0 342.24 464.29
  Q 392.54 464.35 444.10 464.24
  C 457.54 464.21 471.67 461.51 482.88 454.33
  C 499.97 443.38 503.54 423.52 503.55 404.44
  C 503.55 384.70 498.07 367.98 479.27 359.87
  Q 474.88 357.98 470.58 356.71"
/>
<path stroke="#906b20" vector-effect="non-scaling-stroke" d="
  M 627.4182 281.0223
  A 25.24 23.91 -17.9 0 0 596.0511 266.0274
  A 25.24 23.91 -17.9 0 0 579.3818 296.5377
  A 25.24 23.91 -17.9 0 0 610.7489 311.5326
  A 25.24 23.91 -17.9 0 0 627.4182 281.0223"
/>
<path stroke="#906b20" vector-effect="non-scaling-stroke" d="
  M 110.23 305.35
  L 127.37 310.13
  A 0.69 0.69 0.0 0 0 128.22 309.65
  L 131.83 296.74
  A 9.76 9.48 -74.4 0 0 125.32 284.79
  L 125.11 284.73
  A 9.76 9.48 -74.4 0 0 113.36 291.58
  L 109.75 304.50
  A 0.69 0.69 0.0 0 0 110.23 305.35"
/>
<path stroke="#906b20" vector-effect="non-scaling-stroke" d="
  M 136.93 312.78
  L 157.24 318.42
  A 0.59 0.59 0.0 0 0 157.97 318.01
  L 161.67 304.68
  A 11.42 11.06 -74.5 0 0 154.06 290.72
  L 153.93 290.68
  A 11.42 11.06 -74.5 0 0 140.22 298.73
  L 136.52 312.06
  A 0.59 0.59 0.0 0 0 136.93 312.78"
/>
<path stroke="#916d19" vector-effect="non-scaling-stroke" d="
  M 474.77 595.03
  L 475.21 596.04
  Q 475.71 597.20 476.54 596.25
  Q 480.85 591.27 477.57 585.81
  C 473.38 578.86 462.20 581.83 463.10 590.47
  Q 463.81 597.21 471.10 598.53
  Q 472.67 598.81 472.37 597.25
  C 472.26 596.65 472.07 595.81 472.34 595.24
  Q 472.70 594.45 473.65 594.36
  Q 474.45 594.29 474.77 595.03"
/>
<path stroke="#916d19" vector-effect="non-scaling-stroke" d="
  M 288.90 587.90
  L 283.86 602.45
  A 0.60 0.60 0.0 0 0 284.23 603.22
  L 287.33 604.29
  A 8.16 8.06 -70.9 0 0 297.62 599.22
  L 297.71 598.95
  A 8.16 8.06 -70.9 0 0 292.76 588.60
  L 289.66 587.53
  A 0.60 0.60 0.0 0 0 288.90 587.90"
/>
<path stroke="#916d19" vector-effect="non-scaling-stroke" d="
  M 446.45 601.77
  A 0.32 0.32 0.0 0 0 446.87 602.09
  L 450.93 600.77
  A 0.32 0.32 0.0 0 0 451.08 600.26
  L 447.35 595.71
  A 0.32 0.32 0.0 0 0 446.78 595.89
  L 446.45 601.77"
/>
<path stroke="#916d19" vector-effect="non-scaling-stroke" d="
  M 311.77 605.39
  A 0.32 0.32 0.0 0 0 311.95 605.88
  L 316.01 606.92
  A 0.32 0.32 0.0 0 0 316.41 606.58
  L 315.78 600.59
  A 0.32 0.32 0.0 0 0 315.20 600.45
  L 311.77 605.39"
/>
<path stroke="#916d19" vector-effect="non-scaling-stroke" d="
  M 423.86 597.66
  L 425.74 605.19
  A 0.69 0.69 0.0 0 0 426.57 605.69
  L 429.79 604.89
  A 4.66 4.40 -14.0 0 0 433.24 599.50
  L 433.16 599.17
  A 4.66 4.40 -14.0 0 0 427.57 596.03
  L 424.36 596.83
  A 0.69 0.69 0.0 0 0 423.86 597.66"
/>
<path stroke="#916d19" vector-effect="non-scaling-stroke" d="
  M 334.01 599.90
  L 331.94 615.22
  A 0.57 0.57 0.0 0 0 332.43 615.86
  L 335.52 616.28
  A 8.27 8.06 7.7 0 0 344.79 609.40
  L 344.86 608.92
  A 8.27 8.06 7.7 0 0 337.74 599.83
  L 334.65 599.41
  A 0.57 0.57 0.0 0 0 334.01 599.90"
/>
</g>
<path fill="#1c1b29" d="
  M 0.00 0.00
  L 740.00 0.00
  L 740.00 738.00
  L 0.00 738.00
  L 0.00 0.00
  Z
  M 692.6295 365.3585
  A 320.00 319.87 0.1 0 0 373.1883 44.9305
  A 320.00 319.87 0.1 0 0 52.6305 364.2415
  A 320.00 319.87 0.1 0 0 372.0717 684.6695
  A 320.00 319.87 0.1 0 0 692.6295 365.3585
  Z
  M 733.92 305.36
  Q 734.21 298.33 734.08 293.39
  C 733.89 286.16 733.84 278.13 733.86 273.41
  A 105.36 1.99 -89.9 0 0 733.88 258.51
  Q 733.88 250.84 733.87 241.77
  Q 733.87 239.87 731.98 239.87
  L 731.41 239.87
  Q 729.59 239.87 729.46 241.69
  Q 728.55 254.10 729.01 267.66
  Q 729.13 271.08 729.02 274.38
  Q 728.90 277.96 728.98 281.10
  Q 729.16 287.32 728.84 293.01
  Q 728.82 293.28 728.99 293.50
  Q 729.07 293.60 729.07 293.74
  Q 729.11 299.27 729.38 304.54
  Q 729.50 306.68 731.60 307.09
  Q 731.86 307.15 732.13 307.14
  A 1.86 1.86 0.0 0 0 733.92 305.36
  Z"
/>
<path fill="#feb81d" d="
  M 692.6295 365.3585
  A 320.00 319.87 0.1 0 1 372.0717 684.6695
  A 320.00 319.87 0.1 0 1 52.6305 364.2415
  A 320.00 319.87 0.1 0 1 373.1883 44.9305
  A 320.00 319.87 0.1 0 1 692.6295 365.3585
  Z
  M 686.4866 360.9652
  A 313.89 313.74 -0.7 0 0 368.7870 51.0834
  A 313.89 313.74 -0.7 0 0 58.7534 368.6348
  A 313.89 313.74 -0.7 0 0 376.4530 678.5166
  A 313.89 313.74 -0.7 0 0 686.4866 360.9652
  Z"
/>
<path fill="#211e23" d="
  M 686.4866 360.9652
  A 313.89 313.74 -0.7 0 1 376.4530 678.5166
  A 313.89 313.74 -0.7 0 1 58.7534 368.6348
  A 313.89 313.74 -0.7 0 1 368.7870 51.0834
  A 313.89 313.74 -0.7 0 1 686.4866 360.9652
  Z
  M 676.7125 369.5771
  A 304.13 304.01 0.9 0 0 377.3952 60.8275
  A 304.13 304.01 0.9 0 0 68.5275 360.0229
  A 304.13 304.01 0.9 0 0 367.8448 668.7725
  A 304.13 304.01 0.9 0 0 676.7125 369.5771
  Z"
/>
<path fill="#feb81d" d="
  M 676.7125 369.5771
  A 304.13 304.01 0.9 0 1 367.8448 668.7725
  A 304.13 304.01 0.9 0 1 68.5275 360.0229
  A 304.13 304.01 0.9 0 1 377.3952 60.8275
  A 304.13 304.01 0.9 0 1 676.7125 369.5771
  Z
  M 358.6712 157.2357
  A 34.76 34.63 84.6 0 0 389.8763 119.3710
  A 34.76 34.63 84.6 0 0 352.1288 88.0243
  A 34.76 34.63 84.6 0 0 320.9237 125.8890
  A 34.76 34.63 84.6 0 0 358.6712 157.2357
  Z
  M 408.07 144.88
  Q 411.88 153.03 419.47 158.35
  Q 429.47 165.35 442.88 164.31
  A 0.61 0.61 0.0 0 0 443.44 163.83
  L 445.61 154.30
  A 0.39 0.39 0.0 0 0 445.13 153.84
  C 431.80 157.36 419.89 150.13 416.11 137.02
  C 412.44 124.32 419.72 109.35 432.94 105.55
  Q 445.51 101.93 455.66 110.94
  Q 455.72 110.99 455.74 110.92
  Q 457.18 105.48 458.08 100.39
  Q 458.10 100.28 458.00 100.22
  Q 442.38 91.14 426.46 97.32
  C 419.50 100.02 412.91 105.68 409.35 112.12
  Q 400.36 128.40 408.07 144.88
  Z
  M 296.58 129.70
  C 298.37 125.63 299.20 121.88 298.23 117.48
  C 296.47 109.52 289.05 104.02 281.05 103.83
  Q 276.89 103.73 271.93 105.75
  Q 261.26 110.08 250.74 114.08
  A 0.67 0.66 68.7 0 0 250.36 114.95
  L 274.53 176.76
  Q 274.65 177.06 274.95 176.94
  Q 285.15 172.70 296.19 168.61
  Q 301.18 166.76 304.32 164.31
  C 311.15 158.98 313.43 149.03 309.86 141.21
  Q 305.92 132.62 297.05 130.61
  Q 296.26 130.43 296.58 129.70
  Z
  M 458.38 172.31
  A 0.39 0.39 0.0 0 0 458.82 172.27
  L 472.66 161.14
  A 0.39 0.39 0.0 0 1 473.09 161.11
  L 492.13 171.66
  A 0.39 0.39 0.0 0 1 492.33 172.05
  L 490.40 189.61
  A 0.39 0.39 0.0 0 0 490.59 190.00
  L 498.87 194.68
  A 0.39 0.39 0.0 0 0 499.45 194.38
  L 507.66 122.10
  A 0.39 0.39 0.0 0 0 507.03 121.75
  L 450.12 166.94
  A 0.39 0.39 0.0 0 0 450.17 167.59
  L 458.38 172.31
  Z
  M 238.53 169.57
  Q 214.30 164.23 188.10 158.33
  Q 186.67 158.01 185.49 158.91
  Q 182.91 160.87 180.34 163.07
  A 1.02 1.02 0.0 0 0 180.20 164.48
  L 220.92 215.80
  Q 221.38 216.37 221.94 215.92
  L 228.06 211.07
  A 0.70 0.70 0.0 0 0 228.17 210.09
  L 197.96 172.02
  Q 197.02 170.83 198.50 171.14
  L 262.31 184.37
  Q 263.38 184.59 262.70 183.73
  L 220.97 131.07
  Q 220.84 130.90 220.68 131.03
  L 213.94 136.49
  Q 213.68 136.70 213.89 136.97
  L 239.04 168.75
  Q 239.93 169.88 238.53 169.57
  Z
  M 555.32 168.39
  A 0.41 0.40 39.4 0 1 555.91 168.34
  L 567.51 178.74
  Q 568.10 179.27 568.64 178.68
  L 573.86 172.88
  A 0.82 0.81 42.3 0 0 573.80 171.73
  L 542.52 143.68
  Q 542.33 143.51 542.16 143.70
  L 536.28 150.25
  A 0.35 0.35 0.0 0 0 536.30 150.75
  L 547.41 160.72
  Q 548.43 161.64 547.51 162.66
  L 510.04 204.40
  A 0.36 0.35 42.1 0 0 510.07 204.90
  L 516.78 211.06
  Q 517.02 211.27 517.23 211.04
  Q 536.04 190.24 554.64 169.22
  Q 554.98 168.83 555.32 168.39
  Z
  M 560.54 364.80
  A 187.92 187.92 0.0 0 0 372.62 176.88
  A 187.92 187.92 0.0 0 0 184.70 364.80
  A 187.92 187.92 0.0 0 0 372.62 552.72
  A 187.92 187.92 0.0 0 0 560.54 364.80
  Z
  M 596.35 216.89
  A 0.60 0.60 0.0 0 1 597.19 217.05
  L 605.91 229.84
  A 0.60 0.60 0.0 0 0 606.75 229.99
  L 613.49 225.25
  A 0.60 0.60 0.0 0 0 613.64 224.42
  L 589.86 189.89
  A 0.60 0.60 0.0 0 0 589.01 189.75
  L 582.36 194.54
  A 0.60 0.60 0.0 0 0 582.22 195.36
  L 590.87 208.06
  A 0.60 0.60 0.0 0 1 590.72 208.89
  L 544.07 241.01
  A 0.60 0.60 0.0 0 0 543.92 241.84
  L 548.77 248.93
  A 0.60 0.60 0.0 0 0 549.61 249.09
  L 596.35 216.89
  Z
  M 198.6784 250.3820
  A 34.80 34.61 29.7 0 0 185.5978 203.0767
  A 34.80 34.61 29.7 0 0 138.2216 215.8980
  A 34.80 34.61 29.7 0 0 151.3022 263.2033
  A 34.80 34.61 29.7 0 0 198.6784 250.3820
  Z
  M 636.9384 279.1630
  A 34.89 34.51 -16.0 0 0 593.8878 255.6069
  A 34.89 34.51 -16.0 0 0 569.8616 298.3970
  A 34.89 34.51 -16.0 0 0 612.9122 321.9531
  A 34.89 34.51 -16.0 0 0 636.9384 279.1630
  Z
  M 138.82 284.76
  Q 132.20 272.02 118.83 274.82
  C 111.38 276.38 106.75 282.38 104.87 289.52
  Q 101.91 300.74 98.77 311.55
  A 0.73 0.73 0.0 0 0 99.28 312.46
  L 163.15 330.24
  A 0.43 0.42 -74.9 0 0 163.68 329.93
  Q 165.71 321.90 168.29 313.33
  Q 171.08 304.07 171.22 300.51
  C 171.90 284.16 152.09 273.55 139.44 284.87
  A 0.40 0.39 -34.2 0 1 138.82 284.76
  Z
  M 198.82 541.14
  A 0.66 0.66 0.0 0 1 199.76 541.12
  L 205.57 546.77
  A 0.66 0.66 0.0 0 0 206.52 546.74
  L 207.64 545.50
  A 0.66 0.66 0.0 0 0 207.61 544.59
  L 201.86 539.06
  A 0.66 0.66 0.0 0 1 201.83 538.13
  L 204.95 534.73
  A 0.66 0.66 0.0 0 1 205.90 534.70
  L 212.02 540.63
  A 0.66 0.66 0.0 0 0 212.96 540.61
  L 214.12 539.40
  A 0.66 0.66 0.0 0 0 214.11 538.47
  L 205.76 530.34
  A 0.66 0.66 0.0 0 0 204.82 530.36
  L 190.43 545.35
  A 0.66 0.66 0.0 0 0 190.39 546.21
  L 191.56 547.72
  A 0.66 0.66 0.0 0 0 192.56 547.77
  L 198.82 541.14
  Z
  M 535.40 539.43
  A 0.64 0.64 0.0 0 1 535.42 538.53
  L 541.46 532.72
  A 0.64 0.64 0.0 0 0 541.52 531.87
  L 540.47 530.52
  A 0.64 0.64 0.0 0 0 539.53 530.45
  L 531.05 538.47
  A 0.64 0.64 0.0 0 0 531.02 539.37
  L 545.42 554.47
  A 0.64 0.64 0.0 0 0 546.32 554.49
  L 554.81 546.32
  A 0.64 0.64 0.0 0 0 554.88 545.47
  L 553.74 544.01
  A 0.64 0.64 0.0 0 0 552.79 543.94
  L 546.55 550.06
  A 0.64 0.64 0.0 0 1 545.64 550.05
  L 541.24 545.52
  A 0.64 0.64 0.0 0 1 541.25 544.62
  L 546.92 538.97
  A 0.64 0.64 0.0 0 0 546.94 538.09
  L 545.87 536.93
  A 0.64 0.64 0.0 0 0 544.96 536.90
  L 539.19 542.47
  A 0.64 0.64 0.0 0 1 538.29 542.45
  L 535.40 539.43
  Z
  M 520.82 550.82
  A 0.66 0.66 0.0 0 1 521.79 550.88
  L 533.11 564.89
  A 0.66 0.66 0.0 0 0 534.03 564.99
  L 535.51 563.84
  A 0.66 0.66 0.0 0 0 535.61 562.91
  L 524.36 549.07
  A 0.66 0.66 0.0 0 1 524.46 548.14
  L 527.63 545.54
  A 0.66 0.66 0.0 0 0 527.76 544.66
  L 526.82 543.23
  A 0.66 0.66 0.0 0 0 525.85 543.08
  L 515.81 551.24
  A 0.66 0.66 0.0 0 0 515.69 552.13
  L 516.76 553.63
  A 0.66 0.66 0.0 0 0 517.75 553.73
  L 520.82 550.82
  Z
  M 214.97 554.20
  L 221.00 559.11
  Q 221.85 559.79 222.71 559.13
  Q 222.97 558.93 223.10 558.63
  Q 223.66 557.34 222.56 556.46
  L 217.39 552.36
  A 1.00 0.99 -52.3 0 1 217.22 550.98
  L 219.37 548.18
  Q 219.94 547.43 220.67 548.03
  L 226.62 552.91
  Q 227.54 553.66 228.29 552.75
  L 228.71 552.25
  A 1.26 1.26 0.0 0 0 228.53 550.46
  L 219.79 543.40
  A 0.43 0.42 -51.1 0 0 219.19 543.47
  L 206.08 559.66
  A 0.89 0.87 -51.0 0 0 206.20 560.90
  L 214.76 567.87
  Q 215.75 568.68 216.55 567.67
  L 216.92 567.20
  A 1.30 1.30 0.0 0 0 216.71 565.38
  L 210.25 560.15
  Q 210.10 560.03 210.21 559.86
  Q 212.13 556.96 214.66 554.23
  Q 214.80 554.07 214.97 554.20
  Z
  M 514.58 575.47
  A 0.66 0.66 0.0 0 1 513.65 575.30
  L 510.11 570.08
  A 0.66 0.66 0.0 0 1 510.28 569.16
  L 516.78 564.73
  A 0.66 0.66 0.0 0 0 517.00 563.88
  L 516.21 562.39
  A 0.66 0.66 0.0 0 0 515.26 562.15
  L 508.49 566.75
  A 0.66 0.66 0.0 0 1 507.56 566.55
  L 505.44 563.09
  A 0.66 0.66 0.0 0 1 505.63 562.20
  L 512.41 557.58
  A 0.66 0.66 0.0 0 0 512.61 556.71
  L 511.74 555.16
  A 0.66 0.66 0.0 0 0 510.79 554.94
  L 501.17 561.58
  A 0.66 0.66 0.0 0 0 501.00 562.49
  L 512.79 579.69
  A 0.66 0.66 0.0 0 0 513.71 579.86
  L 523.42 573.15
  A 0.66 0.66 0.0 0 0 523.60 572.24
  L 522.56 570.66
  A 0.66 0.66 0.0 0 0 521.63 570.49
  L 514.58 575.47
  Z
  M 233.72 578.34
  A 0.74 0.74 0.0 0 0 233.51 577.34
  L 227.23 573.10
  A 0.74 0.74 0.0 0 1 227.03 572.07
  L 236.93 557.56
  A 0.74 0.74 0.0 0 0 236.81 556.59
  L 235.54 555.47
  A 0.74 0.74 0.0 0 0 234.44 555.61
  L 222.56 572.87
  A 0.74 0.74 0.0 0 0 222.76 573.91
  L 231.79 580.00
  A 0.74 0.74 0.0 0 0 232.84 579.78
  L 233.72 578.34
  Z
  M 252.0711 567.6476
  A 1.07 1.07 0.0 0 0 251.7076 566.1787
  L 250.7828 565.6209
  A 1.07 1.07 0.0 0 0 249.3139 565.9844
  L 238.8489 583.3324
  A 1.07 1.07 0.0 0 0 239.2124 584.8013
  L 240.1372 585.3591
  A 1.07 1.07 0.0 0 0 241.6061 584.9956
  L 252.0711 567.6476
  Z
  M 499.13 579.68
  C 502.46 585.58 494.73 589.54 491.60 584.23
  Q 488.30 578.62 484.88 572.33
  Q 484.28 571.22 483.23 571.91
  L 482.60 572.31
  A 1.34 1.34 0.0 0 0 482.17 574.10
  Q 485.22 579.42 488.40 585.27
  C 490.23 588.63 493.34 590.78 497.28 589.70
  Q 502.53 588.24 503.19 583.21
  Q 503.53 580.63 501.14 576.57
  Q 498.15 571.51 495.29 566.36
  A 1.08 1.07 58.0 0 0 493.73 566.00
  L 493.13 566.42
  Q 492.08 567.17 492.71 568.30
  Q 495.95 574.08 499.13 579.68
  Z
  M 261.70 592.98
  C 252.18 591.91 252.88 578.62 261.59 576.95
  Q 265.83 576.13 268.74 579.32
  Q 269.73 580.40 270.32 579.05
  L 270.79 577.97
  Q 271.26 576.88 270.31 576.18
  Q 262.95 570.74 255.76 576.02
  C 247.79 581.86 251.22 594.05 260.36 596.18
  Q 261.57 596.46 261.98 595.30
  L 262.41 594.12
  Q 262.77 593.10 261.70 592.98
  Z
  M 477.60 599.38
  C 485.99 593.43 482.67 579.89 472.31 578.74
  C 464.69 577.89 458.02 584.77 459.88 592.24
  Q 462.41 602.45 473.55 601.34
  Q 474.09 601.29 474.39 601.74
  Q 475.10 602.76 475.41 604.05
  Q 475.80 605.62 477.23 604.88
  L 477.67 604.66
  Q 478.63 604.18 478.24 603.18
  L 477.24 600.61
  A 1.04 1.04 0.0 0 1 477.60 599.38
  Z
  M 279.8567 581.8499
  A 1.20 1.20 0.0 0 0 279.2348 580.2709
  L 278.5011 579.9519
  A 1.20 1.20 0.0 0 0 276.9222 580.5739
  L 268.9233 598.9701
  A 1.20 1.20 0.0 0 0 269.5452 600.5491
  L 270.2789 600.8681
  A 1.20 1.20 0.0 0 0 271.8578 600.2461
  L 279.8567 581.8499
  Z
  M 286.77 584.26
  L 279.98 603.99
  A 0.67 0.67 0.0 0 0 280.39 604.84
  L 286.77 607.04
  A 11.04 10.81 19.0 0 0 300.73 600.41
  L 300.92 599.86
  A 11.04 10.81 19.0 0 0 294.00 586.05
  L 287.62 583.85
  A 0.67 0.67 0.0 0 0 286.77 584.26
  Z
  M 446.34 605.51
  A 0.49 0.49 0.0 0 1 446.68 605.10
  L 452.96 603.06
  A 0.49 0.49 0.0 0 1 453.48 603.21
  L 456.92 607.17
  A 0.49 0.49 0.0 0 0 457.39 607.33
  L 459.73 606.83
  A 0.49 0.49 0.0 0 0 460.00 606.04
  L 445.32 588.69
  A 0.49 0.49 0.0 0 0 444.46 588.97
  L 442.78 611.62
  A 0.49 0.49 0.0 0 0 443.45 612.11
  L 445.39 611.33
  A 0.49 0.49 0.0 0 0 445.69 610.93
  L 446.34 605.51
  Z
  M 316.57 609.93
  A 0.34 0.34 0.0 0 1 316.82 610.19
  L 318.03 615.97
  A 0.34 0.34 0.0 0 0 318.30 616.23
  L 320.61 616.68
  A 0.34 0.34 0.0 0 0 321.01 616.29
  L 317.45 593.34
  A 0.34 0.34 0.0 0 0 316.84 593.20
  L 303.23 611.92
  A 0.34 0.34 0.0 0 0 303.41 612.44
  L 305.89 613.15
  A 0.34 0.34 0.0 0 0 306.26 613.03
  L 309.61 608.40
  A 0.34 0.34 0.0 0 1 309.96 608.27
  L 316.57 609.93
  Z
  M 427.61 608.22
  C 432.97 607.53 438.10 604.52 436.25 598.27
  C 434.82 593.42 430.37 592.19 425.89 593.50
  Q 423.25 594.27 420.91 594.70
  Q 419.99 594.87 420.21 595.78
  L 424.94 615.67
  Q 425.13 616.45 425.93 616.35
  L 427.31 616.17
  A 0.85 0.84 80.4 0 0 428.03 615.15
  L 426.75 609.44
  Q 426.51 608.36 427.61 608.22
  Z
  M 331.24 596.80
  L 328.41 617.43
  A 0.77 0.77 0.0 0 0 329.07 618.29
  L 335.48 619.17
  A 11.28 11.12 7.8 0 0 348.17 609.69
  L 348.18 609.57
  A 11.28 11.12 7.8 0 0 338.52 597.02
  L 332.11 596.14
  A 0.77 0.77 0.0 0 0 331.24 596.80
  Z
  M 400.81 611.15
  Q 400.91 612.18 400.19 611.44
  L 388.60 599.49
  A 1.81 1.81 0.0 0 0 385.53 600.40
  Q 385.43 600.88 385.48 601.38
  Q 386.38 610.52 387.34 620.38
  Q 387.46 621.60 388.69 621.51
  L 389.22 621.47
  Q 390.32 621.38 390.22 620.28
  L 388.88 605.51
  Q 388.78 604.42 389.56 605.20
  L 404.06 619.71
  Q 404.64 620.30 404.57 619.48
  L 402.70 599.04
  Q 402.58 597.74 401.28 597.85
  L 400.82 597.88
  A 1.20 1.20 0.0 0 0 399.73 599.18
  L 400.81 611.15
  Z
  M 369.37 611.89
  A 0.65 0.65 0.0 0 1 370.02 611.24
  L 377.94 611.19
  A 0.65 0.65 0.0 0 0 378.59 610.56
  L 378.64 608.90
  A 0.65 0.65 0.0 0 0 377.99 608.23
  L 369.96 608.21
  A 0.65 0.65 0.0 0 1 369.31 607.55
  L 369.35 603.38
  A 0.65 0.65 0.0 0 1 370.00 602.74
  L 378.42 602.74
  A 0.65 0.65 0.0 0 0 379.07 602.08
  L 379.06 600.39
  A 0.65 0.65 0.0 0 0 378.41 599.75
  L 366.74 599.70
  A 0.65 0.65 0.0 0 0 366.09 600.35
  L 366.14 621.35
  A 0.65 0.65 0.0 0 0 366.79 622.00
  L 378.61 621.92
  A 0.65 0.65 0.0 0 0 379.25 621.30
  L 379.33 619.33
  A 0.65 0.65 0.0 0 0 378.67 618.65
  L 370.07 618.77
  A 0.65 0.65 0.0 0 1 369.42 618.13
  L 369.37 611.89
  Z"
/>
<path fill="#211e23" d="
  M 358.6712 157.2357
  A 34.76 34.63 84.6 0 1 320.9237 125.8890
  A 34.76 34.63 84.6 0 1 352.1288 88.0243
  A 34.76 34.63 84.6 0 1 389.8763 119.3710
  A 34.76 34.63 84.6 0 1 358.6712 157.2357
  Z
  M 357.2010 147.7655
  A 25.19 23.94 85.9 0 0 379.2787 120.9284
  A 25.19 23.94 85.9 0 0 353.5990 97.5145
  A 25.19 23.94 85.9 0 0 331.5213 124.3516
  A 25.19 23.94 85.9 0 0 357.2010 147.7655
  Z"
/>
<path fill="#211e23" d="
  M 408.07 144.88
  Q 400.36 128.40 409.35 112.12
  C 412.91 105.68 419.50 100.02 426.46 97.32
  Q 442.38 91.14 458.00 100.22
  Q 458.10 100.28 458.08 100.39
  Q 457.18 105.48 455.74 110.92
  Q 455.72 110.99 455.66 110.94
  Q 445.51 101.93 432.94 105.55
  C 419.72 109.35 412.44 124.32 416.11 137.02
  C 419.89 150.13 431.80 157.36 445.13 153.84
  A 0.39 0.39 0.0 0 1 445.61 154.30
  L 443.44 163.83
  A 0.61 0.61 0.0 0 1 442.88 164.31
  Q 429.47 165.35 419.47 158.35
  Q 411.88 153.03 408.07 144.88
  Z"
/>
<ellipse fill="#feb81d" cx="0.00" cy="0.00" transform="translate(355.40,122.64) rotate(85.9)" rx="25.19" ry="23.94"/>
<path fill="#211e23" d="
  M 297.05 130.61
  Q 305.92 132.62 309.86 141.21
  C 313.43 149.03 311.15 158.98 304.32 164.31
  Q 301.18 166.76 296.19 168.61
  Q 285.15 172.70 274.95 176.94
  Q 274.65 177.06 274.53 176.76
  L 250.36 114.95
  A 0.67 0.66 68.7 0 1 250.74 114.08
  Q 261.26 110.08 271.93 105.75
  Q 276.89 103.73 281.05 103.83
  C 289.05 104.02 296.47 109.52 298.23 117.48
  C 299.20 121.88 298.37 125.63 296.58 129.70
  Q 296.26 130.43 297.05 130.61
  Z
  M 262.64 119.43
  L 269.16 136.05
  A 0.66 0.66 0.0 0 0 270.02 136.43
  L 282.46 131.55
  A 9.81 9.48 -21.4 0 0 288.14 119.14
  L 288.06 118.94
  A 9.81 9.48 -21.4 0 0 275.47 113.69
  L 263.02 118.57
  A 0.66 0.66 0.0 0 0 262.64 119.43
  Z
  M 272.67 145.07
  L 280.44 164.99
  A 0.46 0.46 0.0 0 0 281.03 165.25
  L 293.98 160.20
  A 11.52 11.05 -21.3 0 0 300.70 145.72
  L 300.63 145.54
  A 11.52 11.05 -21.3 0 0 285.88 139.43
  L 272.93 144.48
  A 0.46 0.46 0.0 0 0 272.67 145.07
  Z"
/>
<path fill="#feb81d" d="
  M 262.64 119.43
  A 0.66 0.66 0.0 0 1 263.02 118.57
  L 275.47 113.69
  A 9.81 9.48 -21.4 0 1 288.06 118.94
  L 288.14 119.14
  A 9.81 9.48 -21.4 0 1 282.46 131.55
  L 270.02 136.43
  A 0.66 0.66 0.0 0 1 269.16 136.05
  L 262.64 119.43
  Z"
/>
<path fill="#211e23" d="
  M 458.38 172.31
  L 450.17 167.59
  A 0.39 0.39 0.0 0 1 450.12 166.94
  L 507.03 121.75
  A 0.39 0.39 0.0 0 1 507.66 122.10
  L 499.45 194.38
  A 0.39 0.39 0.0 0 1 498.87 194.68
  L 490.59 190.00
  A 0.39 0.39 0.0 0 1 490.40 189.61
  L 492.33 172.05
  A 0.39 0.39 0.0 0 0 492.13 171.66
  L 473.09 161.11
  A 0.39 0.39 0.0 0 0 472.66 161.14
  L 458.82 172.27
  A 0.39 0.39 0.0 0 1 458.38 172.31
  Z
  M 480.30 154.74
  A 0.33 0.33 0.0 0 0 480.35 155.28
  L 493.34 162.49
  A 0.33 0.33 0.0 0 0 493.83 162.24
  L 496.47 142.15
  A 0.33 0.33 0.0 0 0 495.93 141.85
  L 480.30 154.74
  Z"
/>
<path fill="#211e23" d="
  M 238.53 169.57
  Q 239.93 169.88 239.04 168.75
  L 213.89 136.97
  Q 213.68 136.70 213.94 136.49
  L 220.68 131.03
  Q 220.84 130.90 220.97 131.07
  L 262.70 183.73
  Q 263.38 184.59 262.31 184.37
  L 198.50 171.14
  Q 197.02 170.83 197.96 172.02
  L 228.17 210.09
  A 0.70 0.70 0.0 0 1 228.06 211.07
  L 221.94 215.92
  Q 221.38 216.37 220.92 215.80
  L 180.20 164.48
  A 1.02 1.02 0.0 0 1 180.34 163.07
  Q 182.91 160.87 185.49 158.91
  Q 186.67 158.01 188.10 158.33
  Q 214.30 164.23 238.53 169.57
  Z"
/>
<path fill="#feb81d" d="
  M 272.67 145.07
  A 0.46 0.46 0.0 0 1 272.93 144.48
  L 285.88 139.43
  A 11.52 11.05 -21.3 0 1 300.63 145.54
  L 300.70 145.72
  A 11.52 11.05 -21.3 0 1 293.98 160.20
  L 281.03 165.25
  A 0.46 0.46 0.0 0 1 280.44 164.99
  L 272.67 145.07
  Z"
/>
<path fill="#feb81d" d="
  M 480.30 154.74
  L 495.93 141.85
  A 0.33 0.33 0.0 0 1 496.47 142.15
  L 493.83 162.24
  A 0.33 0.33 0.0 0 1 493.34 162.49
  L 480.35 155.28
  A 0.33 0.33 0.0 0 1 480.30 154.74
  Z"
/>
<path fill="#211e23" d="
  M 555.32 168.39
  Q 554.98 168.83 554.64 169.22
  Q 536.04 190.24 517.23 211.04
  Q 517.02 211.27 516.78 211.06
  L 510.07 204.90
  A 0.36 0.35 42.1 0 1 510.04 204.40
  L 547.51 162.66
  Q 548.43 161.64 547.41 160.72
  L 536.30 150.75
  A 0.35 0.35 0.0 0 1 536.28 150.25
  L 542.16 143.70
  Q 542.33 143.51 542.52 143.68
  L 573.80 171.73
  A 0.82 0.81 42.3 0 1 573.86 172.88
  L 568.64 178.68
  Q 568.10 179.27 567.51 178.74
  L 555.91 168.34
  A 0.41 0.40 39.4 0 0 555.32 168.39
  Z"
/>
<path fill="#211e23" d="
  M 560.54 364.80
  A 187.92 187.92 0.0 0 1 372.62 552.72
  A 187.92 187.92 0.0 0 1 184.70 364.80
  A 187.92 187.92 0.0 0 1 372.62 176.88
  A 187.92 187.92 0.0 0 1 560.54 364.80
  Z
  M 551.11 364.80
  A 178.48 178.48 0.0 0 0 372.63 186.32
  A 178.48 178.48 0.0 0 0 194.15 364.80
  A 178.48 178.48 0.0 0 0 372.63 543.28
  A 178.48 178.48 0.0 0 0 551.11 364.80
  Z"
/>
<path fill="#feb81d" d="
  M 551.11 364.80
  A 178.48 178.48 0.0 0 1 372.63 543.28
  A 178.48 178.48 0.0 0 1 194.15 364.80
  A 178.48 178.48 0.0 0 1 372.63 186.32
  A 178.48 178.48 0.0 0 1 551.11 364.80
  Z
  M 537.36 364.80
  A 164.74 164.74 0.0 0 0 372.62 200.06
  A 164.74 164.74 0.0 0 0 207.88 364.80
  A 164.74 164.74 0.0 0 0 372.62 529.54
  A 164.74 164.74 0.0 0 0 537.36 364.80
  Z"
/>
<path fill="#211e23" d="
  M 596.35 216.89
  L 549.61 249.09
  A 0.60 0.60 0.0 0 1 548.77 248.93
  L 543.92 241.84
  A 0.60 0.60 0.0 0 1 544.07 241.01
  L 590.72 208.89
  A 0.60 0.60 0.0 0 0 590.87 208.06
  L 582.22 195.36
  A 0.60 0.60 0.0 0 1 582.36 194.54
  L 589.01 189.75
  A 0.60 0.60 0.0 0 1 589.86 189.89
  L 613.64 224.42
  A 0.60 0.60 0.0 0 1 613.49 225.25
  L 606.75 229.99
  A 0.60 0.60 0.0 0 1 605.91 229.84
  L 597.19 217.05
  A 0.60 0.60 0.0 0 0 596.35 216.89
  Z"
/>
<path fill="#211e23" d="
  M 198.6784 250.3820
  A 34.80 34.61 29.7 0 1 151.3022 263.2033
  A 34.80 34.61 29.7 0 1 138.2216 215.8980
  A 34.80 34.61 29.7 0 1 185.5978 203.0767
  A 34.80 34.61 29.7 0 1 198.6784 250.3820
  Z
  M 189.9306 246.3449
  A 25.22 23.92 31.6 0 0 180.9837 212.7567
  A 25.22 23.92 31.6 0 0 146.9694 219.9151
  A 25.22 23.92 31.6 0 0 155.9163 253.5033
  A 25.22 23.92 31.6 0 0 189.9306 246.3449
  Z"
/>
<path fill="#252431" d="
  M 537.36 364.80
  A 164.74 164.74 0.0 0 1 372.62 529.54
  A 164.74 164.74 0.0 0 1 207.88 364.80
  A 164.74 164.74 0.0 0 1 372.62 200.06
  A 164.74 164.74 0.0 0 1 537.36 364.80
  Z
  M 339.56 366.70
  Q 356.58 366.83 378.15 366.69
  C 404.45 366.51 425.82 379.90 430.99 407.23
  Q 434.10 423.65 430.97 440.84
  A 0.38 0.38 0.0 0 0 431.36 441.29
  Q 444.03 440.59 452.93 439.50
  Q 455.00 439.25 455.19 437.18
  Q 456.53 421.89 455.05 409.28
  C 453.09 392.55 445.80 377.87 433.40 366.41
  Q 425.78 359.37 413.23 355.29
  A 0.60 0.60 0.0 0 1 413.19 354.16
  C 422.20 350.43 429.31 345.77 435.02 338.07
  C 445.82 323.52 448.17 303.55 446.13 285.66
  A 1.05 1.05 0.0 0 0 445.21 284.73
  Q 435.20 283.51 423.18 283.40
  A 0.84 0.83 -5.3 0 0 422.35 284.39
  C 426.30 304.65 422.81 330.17 402.65 340.79
  Q 391.84 346.49 378.82 346.92
  Q 362.74 347.46 339.16 347.17
  A 0.43 0.43 0.0 0 1 338.74 346.74
  L 338.71 247.30
  A 0.43 0.43 0.0 0 1 339.14 246.87
  Q 359.40 246.88 377.76 246.89
  C 389.01 246.91 401.82 249.01 409.84 257.17
  A 2.71 2.69 -22.2 0 0 411.76 257.97
  L 435.74 257.87
  A 0.53 0.53 0.0 0 0 436.21 257.10
  Q 425.46 235.85 402.22 229.80
  Q 393.38 227.50 387.75 227.48
  Q 353.92 227.39 316.21 227.43
  Q 315.63 227.43 315.63 228.02
  L 315.67 501.25
  Q 315.67 502.29 316.71 502.29
  Q 347.78 502.19 379.74 502.27
  C 406.69 502.33 432.62 491.78 445.69 467.10
  A 0.26 0.26 0.0 0 0 445.46 466.72
  L 419.80 466.74
  A 1.83 1.81 -68.1 0 0 418.48 467.31
  C 407.88 478.74 393.22 482.69 377.52 482.71
  Q 356.79 482.75 339.11 482.71
  A 0.41 0.41 0.0 0 1 338.70 482.30
  L 338.76 367.49
  Q 338.76 366.69 339.56 366.70
  Z
  M 313.15 347.71
  A 0.57 0.57 0.0 0 0 312.58 347.14
  L 291.49 347.23
  A 0.57 0.57 0.0 0 1 290.92 346.66
  L 290.87 281.50
  A 0.57 0.57 0.0 0 1 291.44 280.93
  L 312.51 280.98
  A 0.57 0.57 0.0 0 0 313.08 280.41
  L 313.17 260.92
  A 0.57 0.57 0.0 0 0 312.60 260.35
  L 268.31 260.36
  A 0.57 0.57 0.0 0 0 267.74 260.93
  L 267.75 463.75
  A 0.57 0.57 0.0 0 0 268.32 464.32
  L 312.54 464.29
  A 0.57 0.57 0.0 0 0 313.11 463.72
  L 313.16 444.26
  A 0.57 0.57 0.0 0 0 312.59 443.69
  L 291.49 443.68
  A 0.57 0.57 0.0 0 1 290.92 443.11
  L 290.86 367.02
  A 0.57 0.57 0.0 0 1 291.43 366.45
  L 312.59 366.47
  A 0.57 0.57 0.0 0 0 313.16 365.90
  L 313.15 347.71
  Z
  M 470.58 356.71
  Q 468.75 356.17 470.56 355.55
  C 484.68 350.69 493.15 338.59 495.29 323.84
  C 497.79 306.64 493.73 288.11 480.73 276.19
  Q 465.22 261.98 443.15 260.84
  Q 435.32 260.44 426.11 260.47
  Q 383.44 260.58 341.93 260.36
  A 0.69 0.68 -89.6 0 0 341.24 261.05
  L 341.22 280.30
  A 0.67 0.67 0.0 0 0 341.89 280.97
  Q 383.84 280.95 427.79 280.97
  C 433.16 280.98 438.51 281.37 443.90 281.94
  Q 449.20 282.50 454.69 284.63
  Q 466.88 289.36 469.50 302.39
  Q 472.09 315.34 469.54 328.00
  C 465.47 348.17 446.33 347.50 429.97 348.03
  Q 429.44 348.05 429.00 348.33
  L 419.38 354.48
  A 0.20 0.20 0.0 0 0 419.41 354.83
  Q 429.69 359.14 437.25 366.57
  C 437.92 367.22 438.89 367.89 439.83 367.96
  C 455.89 369.20 472.37 373.45 476.68 391.47
  Q 479.37 402.75 477.23 418.58
  C 475.94 428.10 471.53 435.55 462.18 439.45
  Q 457.28 441.50 452.51 442.13
  Q 441.12 443.63 429.70 443.67
  Q 387.66 443.81 342.21 443.72
  A 0.98 0.98 0.0 0 0 341.23 444.70
  L 341.22 463.28
  A 1.02 1.01 -0.0 0 0 342.24 464.29
  Q 392.54 464.35 444.10 464.24
  C 457.54 464.21 471.67 461.51 482.88 454.33
  C 499.97 443.38 503.54 423.52 503.55 404.44
  C 503.55 384.70 498.07 367.98 479.27 359.87
  Q 474.88 357.98 470.58 356.71
  Z"
/>
<ellipse fill="#feb81d" cx="0.00" cy="0.00" transform="translate(168.45,233.13) rotate(31.6)" rx="25.22" ry="23.92"/>
<path fill="#feb81d" d="
  M 338.76 367.49
  L 338.70 482.30
  A 0.41 0.41 0.0 0 0 339.11 482.71
  Q 356.79 482.75 377.52 482.71
  C 393.22 482.69 407.88 478.74 418.48 467.31
  A 1.83 1.81 -68.1 0 1 419.80 466.74
  L 445.46 466.72
  A 0.26 0.26 0.0 0 1 445.69 467.10
  C 432.62 491.78 406.69 502.33 379.74 502.27
  Q 347.78 502.19 316.71 502.29
  Q 315.67 502.29 315.67 501.25
  L 315.63 228.02
  Q 315.63 227.43 316.21 227.43
  Q 353.92 227.39 387.75 227.48
  Q 393.38 227.50 402.22 229.80
  Q 425.46 235.85 436.21 257.10
  A 0.53 0.53 0.0 0 1 435.74 257.87
  L 411.76 257.97
  A 2.71 2.69 -22.2 0 1 409.84 257.17
  C 401.82 249.01 389.01 246.91 377.76 246.89
  Q 359.40 246.88 339.14 246.87
  A 0.43 0.43 0.0 0 0 338.71 247.30
  L 338.74 346.74
  A 0.43 0.43 0.0 0 0 339.16 347.17
  Q 362.74 347.46 378.82 346.92
  Q 391.84 346.49 402.65 340.79
  C 422.81 330.17 426.30 304.65 422.35 284.39
  A 0.84 0.83 -5.3 0 1 423.18 283.40
  Q 435.20 283.51 445.21 284.73
  A 1.05 1.05 0.0 0 1 446.13 285.66
  C 448.17 303.55 445.82 323.52 435.02 338.07
  C 429.31 345.77 422.20 350.43 413.19 354.16
  A 0.60 0.60 0.0 0 0 413.23 355.29
  Q 425.78 359.37 433.40 366.41
  C 445.80 377.87 453.09 392.55 455.05 409.28
  Q 456.53 421.89 455.19 437.18
  Q 455.00 439.25 452.93 439.50
  Q 444.03 440.59 431.36 441.29
  A 0.38 0.38 0.0 0 1 430.97 440.84
  Q 434.10 423.65 430.99 407.23
  C 425.82 379.90 404.45 366.51 378.15 366.69
  Q 356.58 366.83 339.56 366.70
  Q 338.76 366.69 338.76 367.49
  Z"
/>
<path fill="#211e23" d="
  M 733.92 305.36
  A 1.86 1.86 0.0 0 1 732.13 307.14
  Q 731.86 307.15 731.60 307.09
  Q 729.50 306.68 729.38 304.54
  Q 729.11 299.27 729.07 293.74
  Q 729.07 293.60 728.99 293.50
  Q 728.82 293.28 728.84 293.01
  Q 729.16 287.32 728.98 281.10
  Q 728.90 277.96 729.02 274.38
  Q 729.13 271.08 729.01 267.66
  Q 728.55 254.10 729.46 241.69
  Q 729.59 239.87 731.41 239.87
  L 731.98 239.87
  Q 733.87 239.87 733.87 241.77
  Q 733.88 250.84 733.88 258.51
  A 105.36 1.99 -89.9 0 1 733.86 273.41
  C 733.84 278.13 733.89 286.16 734.08 293.39
  Q 734.21 298.33 733.92 305.36
  Z"
/>
<path fill="#211e23" d="
  M 636.9384 279.1630
  A 34.89 34.51 -16.0 0 1 612.9122 321.9531
  A 34.89 34.51 -16.0 0 1 569.8616 298.3970
  A 34.89 34.51 -16.0 0 1 593.8878 255.6069
  A 34.89 34.51 -16.0 0 1 636.9384 279.1630
  Z
  M 627.4182 281.0223
  A 25.24 23.91 -17.9 0 0 596.0511 266.0274
  A 25.24 23.91 -17.9 0 0 579.3818 296.5377
  A 25.24 23.91 -17.9 0 0 610.7489 311.5326
  A 25.24 23.91 -17.9 0 0 627.4182 281.0223
  Z"
/>
<path fill="#feb81d" d="
  M 313.15 347.71
  L 313.16 365.90
  A 0.57 0.57 0.0 0 1 312.59 366.47
  L 291.43 366.45
  A 0.57 0.57 0.0 0 0 290.86 367.02
  L 290.92 443.11
  A 0.57 0.57 0.0 0 0 291.49 443.68
  L 312.59 443.69
  A 0.57 0.57 0.0 0 1 313.16 444.26
  L 313.11 463.72
  A 0.57 0.57 0.0 0 1 312.54 464.29
  L 268.32 464.32
  A 0.57 0.57 0.0 0 1 267.75 463.75
  L 267.74 260.93
  A 0.57 0.57 0.0 0 1 268.31 260.36
  L 312.60 260.35
  A 0.57 0.57 0.0 0 1 313.17 260.92
  L 313.08 280.41
  A 0.57 0.57 0.0 0 1 312.51 280.98
  L 291.44 280.93
  A 0.57 0.57 0.0 0 0 290.87 281.50
  L 290.92 346.66
  A 0.57 0.57 0.0 0 0 291.49 347.23
  L 312.58 347.14
  A 0.57 0.57 0.0 0 1 313.15 347.71
  Z"
/>
<path fill="#feb81d" d="
  M 470.58 356.71
  Q 474.88 357.98 479.27 359.87
  C 498.07 367.98 503.55 384.70 503.55 404.44
  C 503.54 423.52 499.97 443.38 482.88 454.33
  C 471.67 461.51 457.54 464.21 444.10 464.24
  Q 392.54 464.35 342.24 464.29
  A 1.02 1.01 -0.0 0 1 341.22 463.28
  L 341.23 444.70
  A 0.98 0.98 0.0 0 1 342.21 443.72
  Q 387.66 443.81 429.70 443.67
  Q 441.12 443.63 452.51 442.13
  Q 457.28 441.50 462.18 439.45
  C 471.53 435.55 475.94 428.10 477.23 418.58
  Q 479.37 402.75 476.68 391.47
  C 472.37 373.45 455.89 369.20 439.83 367.96
  C 438.89 367.89 437.92 367.22 437.25 366.57
  Q 429.69 359.14 419.41 354.83
  A 0.20 0.20 0.0 0 1 419.38 354.48
  L 429.00 348.33
  Q 429.44 348.05 429.97 348.03
  C 446.33 347.50 465.47 348.17 469.54 328.00
  Q 472.09 315.34 469.50 302.39
  Q 466.88 289.36 454.69 284.63
  Q 449.20 282.50 443.90 281.94
  C 438.51 281.37 433.16 280.98 427.79 280.97
  Q 383.84 280.95 341.89 280.97
  A 0.67 0.67 0.0 0 1 341.22 280.30
  L 341.24 261.05
  A 0.69 0.68 -89.6 0 1 341.93 260.36
  Q 383.44 260.58 426.11 260.47
  Q 435.32 260.44 443.15 260.84
  Q 465.22 261.98 480.73 276.19
  C 493.73 288.11 497.79 306.64 495.29 323.84
  C 493.15 338.59 484.68 350.69 470.56 355.55
  Q 468.75 356.17 470.58 356.71
  Z"
/>
<ellipse fill="#feb81d" cx="0.00" cy="0.00" transform="translate(603.40,288.78) rotate(-17.9)" rx="25.24" ry="23.91"/>
<path fill="#211e23" d="
  M 138.82 284.76
  A 0.40 0.39 -34.2 0 0 139.44 284.87
  C 152.09 273.55 171.90 284.16 171.22 300.51
  Q 171.08 304.07 168.29 313.33
  Q 165.71 321.90 163.68 329.93
  A 0.43 0.42 -74.9 0 1 163.15 330.24
  L 99.28 312.46
  A 0.73 0.73 0.0 0 1 98.77 311.55
  Q 101.91 300.74 104.87 289.52
  C 106.75 282.38 111.38 276.38 118.83 274.82
  Q 132.20 272.02 138.82 284.76
  Z
  M 110.23 305.35
  L 127.37 310.13
  A 0.69 0.69 0.0 0 0 128.22 309.65
  L 131.83 296.74
  A 9.76 9.48 -74.4 0 0 125.32 284.79
  L 125.11 284.73
  A 9.76 9.48 -74.4 0 0 113.36 291.58
  L 109.75 304.50
  A 0.69 0.69 0.0 0 0 110.23 305.35
  Z
  M 136.93 312.78
  L 157.24 318.42
  A 0.59 0.59 0.0 0 0 157.97 318.01
  L 161.67 304.68
  A 11.42 11.06 -74.5 0 0 154.06 290.72
  L 153.93 290.68
  A 11.42 11.06 -74.5 0 0 140.22 298.73
  L 136.52 312.06
  A 0.59 0.59 0.0 0 0 136.93 312.78
  Z"
/>
<path fill="#feb81d" d="
  M 110.23 305.35
  A 0.69 0.69 0.0 0 1 109.75 304.50
  L 113.36 291.58
  A 9.76 9.48 -74.4 0 1 125.11 284.73
  L 125.32 284.79
  A 9.76 9.48 -74.4 0 1 131.83 296.74
  L 128.22 309.65
  A 0.69 0.69 0.0 0 1 127.37 310.13
  L 110.23 305.35
  Z"
/>
<path fill="#feb81d" d="
  M 136.93 312.78
  A 0.59 0.59 0.0 0 1 136.52 312.06
  L 140.22 298.73
  A 11.42 11.06 -74.5 0 1 153.93 290.68
  L 154.06 290.72
  A 11.42 11.06 -74.5 0 1 161.67 304.68
  L 157.97 318.01
  A 0.59 0.59 0.0 0 1 157.24 318.42
  L 136.93 312.78
  Z"
/>
<path fill="#242115" d="
  M 198.82 541.14
  L 192.56 547.77
  A 0.66 0.66 0.0 0 1 191.56 547.72
  L 190.39 546.21
  A 0.66 0.66 0.0 0 1 190.43 545.35
  L 204.82 530.36
  A 0.66 0.66 0.0 0 1 205.76 530.34
  L 214.11 538.47
  A 0.66 0.66 0.0 0 1 214.12 539.40
  L 212.96 540.61
  A 0.66 0.66 0.0 0 1 212.02 540.63
  L 205.90 534.70
  A 0.66 0.66 0.0 0 0 204.95 534.73
  L 201.83 538.13
  A 0.66 0.66 0.0 0 0 201.86 539.06
  L 207.61 544.59
  A 0.66 0.66 0.0 0 1 207.64 545.50
  L 206.52 546.74
  A 0.66 0.66 0.0 0 1 205.57 546.77
  L 199.76 541.12
  A 0.66 0.66 0.0 0 0 198.82 541.14
  Z"
/>
<path fill="#242115" d="
  M 535.40 539.43
  L 538.29 542.45
  A 0.64 0.64 0.0 0 0 539.19 542.47
  L 544.96 536.90
  A 0.64 0.64 0.0 0 1 545.87 536.93
  L 546.94 538.09
  A 0.64 0.64 0.0 0 1 546.92 538.97
  L 541.25 544.62
  A 0.64 0.64 0.0 0 0 541.24 545.52
  L 545.64 550.05
  A 0.64 0.64 0.0 0 0 546.55 550.06
  L 552.79 543.94
  A 0.64 0.64 0.0 0 1 553.74 544.01
  L 554.88 545.47
  A 0.64 0.64 0.0 0 1 554.81 546.32
  L 546.32 554.49
  A 0.64 0.64 0.0 0 1 545.42 554.47
  L 531.02 539.37
  A 0.64 0.64 0.0 0 1 531.05 538.47
  L 539.53 530.45
  A 0.64 0.64 0.0 0 1 540.47 530.52
  L 541.52 531.87
  A 0.64 0.64 0.0 0 1 541.46 532.72
  L 535.42 538.53
  A 0.64 0.64 0.0 0 0 535.40 539.43
  Z"
/>
<path fill="#242115" d="
  M 520.82 550.82
  L 517.75 553.73
  A 0.66 0.66 0.0 0 1 516.76 553.63
  L 515.69 552.13
  A 0.66 0.66 0.0 0 1 515.81 551.24
  L 525.85 543.08
  A 0.66 0.66 0.0 0 1 526.82 543.23
  L 527.76 544.66
  A 0.66 0.66 0.0 0 1 527.63 545.54
  L 524.46 548.14
  A 0.66 0.66 0.0 0 0 524.36 549.07
  L 535.61 562.91
  A 0.66 0.66 0.0 0 1 535.51 563.84
  L 534.03 564.99
  A 0.66 0.66 0.0 0 1 533.11 564.89
  L 521.79 550.88
  A 0.66 0.66 0.0 0 0 520.82 550.82
  Z"
/>
<path fill="#242115" d="
  M 214.97 554.20
  Q 214.80 554.07 214.66 554.23
  Q 212.13 556.96 210.21 559.86
  Q 210.10 560.03 210.25 560.15
  L 216.71 565.38
  A 1.30 1.30 0.0 0 1 216.92 567.20
  L 216.55 567.67
  Q 215.75 568.68 214.76 567.87
  L 206.20 560.90
  A 0.89 0.87 -51.0 0 1 206.08 559.66
  L 219.19 543.47
  A 0.43 0.42 -51.1 0 1 219.79 543.40
  L 228.53 550.46
  A 1.26 1.26 0.0 0 1 228.71 552.25
  L 228.29 552.75
  Q 227.54 553.66 226.62 552.91
  L 220.67 548.03
  Q 219.94 547.43 219.37 548.18
  L 217.22 550.98
  A 1.00 0.99 -52.3 0 0 217.39 552.36
  L 222.56 556.46
  Q 223.66 557.34 223.10 558.63
  Q 222.97 558.93 222.71 559.13
  Q 221.85 559.79 221.00 559.11
  L 214.97 554.20
  Z"
/>
<path fill="#242115" d="
  M 514.58 575.47
  L 521.63 570.49
  A 0.66 0.66 0.0 0 1 522.56 570.66
  L 523.60 572.24
  A 0.66 0.66 0.0 0 1 523.42 573.15
  L 513.71 579.86
  A 0.66 0.66 0.0 0 1 512.79 579.69
  L 501.00 562.49
  A 0.66 0.66 0.0 0 1 501.17 561.58
  L 510.79 554.94
  A 0.66 0.66 0.0 0 1 511.74 555.16
  L 512.61 556.71
  A 0.66 0.66 0.0 0 1 512.41 557.58
  L 505.63 562.20
  A 0.66 0.66 0.0 0 0 505.44 563.09
  L 507.56 566.55
  A 0.66 0.66 0.0 0 0 508.49 566.75
  L 515.26 562.15
  A 0.66 0.66 0.0 0 1 516.21 562.39
  L 517.00 563.88
  A 0.66 0.66 0.0 0 1 516.78 564.73
  L 510.28 569.16
  A 0.66 0.66 0.0 0 0 510.11 570.08
  L 513.65 575.30
  A 0.66 0.66 0.0 0 0 514.58 575.47
  Z"
/>
<path fill="#242115" d="
  M 233.72 578.34
  L 232.84 579.78
  A 0.74 0.74 0.0 0 1 231.79 580.00
  L 222.76 573.91
  A 0.74 0.74 0.0 0 1 222.56 572.87
  L 234.44 555.61
  A 0.74 0.74 0.0 0 1 235.54 555.47
  L 236.81 556.59
  A 0.74 0.74 0.0 0 1 236.93 557.56
  L 227.03 572.07
  A 0.74 0.74 0.0 0 0 227.23 573.10
  L 233.51 577.34
  A 0.74 0.74 0.0 0 1 233.72 578.34
  Z"
/>
<rect fill="#242115" x="-1.61" y="-11.20" transform="translate(245.46,575.49) rotate(31.1)" width="3.22" height="22.40" rx="1.07"/>
<path fill="#242115" d="
  M 491.60 584.23
  C 494.73 589.54 502.46 585.58 499.13 579.68
  Q 495.95 574.08 492.71 568.30
  Q 492.08 567.17 493.13 566.42
  L 493.73 566.00
  A 1.08 1.07 58.0 0 1 495.29 566.36
  Q 498.15 571.51 501.14 576.57
  Q 503.53 580.63 503.19 583.21
  Q 502.53 588.24 497.28 589.70
  C 493.34 590.78 490.23 588.63 488.40 585.27
  Q 485.22 579.42 482.17 574.10
  A 1.34 1.34 0.0 0 1 482.60 572.31
  L 483.23 571.91
  Q 484.28 571.22 484.88 572.33
  Q 488.30 578.62 491.60 584.23
  Z"
/>
<path fill="#242115" d="
  M 261.59 576.95
  C 252.88 578.62 252.18 591.91 261.70 592.98
  Q 262.77 593.10 262.41 594.12
  L 261.98 595.30
  Q 261.57 596.46 260.36 596.18
  C 251.22 594.05 247.79 581.86 255.76 576.02
  Q 262.95 570.74 270.31 576.18
  Q 271.26 576.88 270.79 577.97
  L 270.32 579.05
  Q 269.73 580.40 268.74 579.32
  Q 265.83 576.13 261.59 576.95
  Z"
/>
<path fill="#242115" d="
  M 477.24 600.61
  L 478.24 603.18
  Q 478.63 604.18 477.67 604.66
  L 477.23 604.88
  Q 475.80 605.62 475.41 604.05
  Q 475.10 602.76 474.39 601.74
  Q 474.09 601.29 473.55 601.34
  Q 462.41 602.45 459.88 592.24
  C 458.02 584.77 464.69 577.89 472.31 578.74
  C 482.67 579.89 485.99 593.43 477.60 599.38
  A 1.04 1.04 0.0 0 0 477.24 600.61
  Z
  M 474.77 595.03
  L 475.21 596.04
  Q 475.71 597.20 476.54 596.25
  Q 480.85 591.27 477.57 585.81
  C 473.38 578.86 462.20 581.83 463.10 590.47
  Q 463.81 597.21 471.10 598.53
  Q 472.67 598.81 472.37 597.25
  C 472.26 596.65 472.07 595.81 472.34 595.24
  Q 472.70 594.45 473.65 594.36
  Q 474.45 594.29 474.77 595.03
  Z"
/>
<rect fill="#242115" x="-1.60" y="-11.23" transform="translate(274.39,590.41) rotate(23.5)" width="3.20" height="22.46" rx="1.20"/>
<path fill="#feb81d" d="
  M 473.65 594.36
  Q 472.70 594.45 472.34 595.24
  C 472.07 595.81 472.26 596.65 472.37 597.25
  Q 472.67 598.81 471.10 598.53
  Q 463.81 597.21 463.10 590.47
  C 462.20 581.83 473.38 578.86 477.57 585.81
  Q 480.85 591.27 476.54 596.25
  Q 475.71 597.20 475.21 596.04
  L 474.77 595.03
  Q 474.45 594.29 473.65 594.36
  Z"
/>
<path fill="#242115" d="
  M 286.77 584.26
  A 0.67 0.67 0.0 0 1 287.62 583.85
  L 294.00 586.05
  A 11.04 10.81 19.0 0 1 300.92 599.86
  L 300.73 600.41
  A 11.04 10.81 19.0 0 1 286.77 607.04
  L 280.39 604.84
  A 0.67 0.67 0.0 0 1 279.98 603.99
  L 286.77 584.26
  Z
  M 288.90 587.90
  L 283.86 602.45
  A 0.60 0.60 0.0 0 0 284.23 603.22
  L 287.33 604.29
  A 8.16 8.06 -70.9 0 0 297.62 599.22
  L 297.71 598.95
  A 8.16 8.06 -70.9 0 0 292.76 588.60
  L 289.66 587.53
  A 0.60 0.60 0.0 0 0 288.90 587.90
  Z"
/>
<path fill="#feb81d" d="
  M 288.90 587.90
  A 0.60 0.60 0.0 0 1 289.66 587.53
  L 292.76 588.60
  A 8.16 8.06 -70.9 0 1 297.71 598.95
  L 297.62 599.22
  A 8.16 8.06 -70.9 0 1 287.33 604.29
  L 284.23 603.22
  A 0.60 0.60 0.0 0 1 283.86 602.45
  L 288.90 587.90
  Z"
/>
<path fill="#242115" d="
  M 446.34 605.51
  L 445.69 610.93
  A 0.49 0.49 0.0 0 1 445.39 611.33
  L 443.45 612.11
  A 0.49 0.49 0.0 0 1 442.78 611.62
  L 444.46 588.97
  A 0.49 0.49 0.0 0 1 445.32 588.69
  L 460.00 606.04
  A 0.49 0.49 0.0 0 1 459.73 606.83
  L 457.39 607.33
  A 0.49 0.49 0.0 0 1 456.92 607.17
  L 453.48 603.21
  A 0.49 0.49 0.0 0 0 452.96 603.06
  L 446.68 605.10
  A 0.49 0.49 0.0 0 0 446.34 605.51
  Z
  M 446.45 601.77
  A 0.32 0.32 0.0 0 0 446.87 602.09
  L 450.93 600.77
  A 0.32 0.32 0.0 0 0 451.08 600.26
  L 447.35 595.71
  A 0.32 0.32 0.0 0 0 446.78 595.89
  L 446.45 601.77
  Z"
/>
<path fill="#242115" d="
  M 316.57 609.93
  L 309.96 608.27
  A 0.34 0.34 0.0 0 0 309.61 608.40
  L 306.26 613.03
  A 0.34 0.34 0.0 0 1 305.89 613.15
  L 303.41 612.44
  A 0.34 0.34 0.0 0 1 303.23 611.92
  L 316.84 593.20
  A 0.34 0.34 0.0 0 1 317.45 593.34
  L 321.01 616.29
  A 0.34 0.34 0.0 0 1 320.61 616.68
  L 318.30 616.23
  A 0.34 0.34 0.0 0 1 318.03 615.97
  L 316.82 610.19
  A 0.34 0.34 0.0 0 0 316.57 609.93
  Z
  M 311.77 605.39
  A 0.32 0.32 0.0 0 0 311.95 605.88
  L 316.01 606.92
  A 0.32 0.32 0.0 0 0 316.41 606.58
  L 315.78 600.59
  A 0.32 0.32 0.0 0 0 315.20 600.45
  L 311.77 605.39
  Z"
/>
<path fill="#242115" d="
  M 427.61 608.22
  Q 426.51 608.36 426.75 609.44
  L 428.03 615.15
  A 0.85 0.84 80.4 0 1 427.31 616.17
  L 425.93 616.35
  Q 425.13 616.45 424.94 615.67
  L 420.21 595.78
  Q 419.99 594.87 420.91 594.70
  Q 423.25 594.27 425.89 593.50
  C 430.37 592.19 434.82 593.42 436.25 598.27
  C 438.10 604.52 432.97 607.53 427.61 608.22
  Z
  M 423.86 597.66
  L 425.74 605.19
  A 0.69 0.69 0.0 0 0 426.57 605.69
  L 429.79 604.89
  A 4.66 4.40 -14.0 0 0 433.24 599.50
  L 433.16 599.17
  A 4.66 4.40 -14.0 0 0 427.57 596.03
  L 424.36 596.83
  A 0.69 0.69 0.0 0 0 423.86 597.66
  Z"
/>
<path fill="#feb81d" d="
  M 446.45 601.77
  L 446.78 595.89
  A 0.32 0.32 0.0 0 1 447.35 595.71
  L 451.08 600.26
  A 0.32 0.32 0.0 0 1 450.93 600.77
  L 446.87 602.09
  A 0.32 0.32 0.0 0 1 446.45 601.77
  Z"
/>
<path fill="#242115" d="
  M 331.24 596.80
  A 0.77 0.77 0.0 0 1 332.11 596.14
  L 338.52 597.02
  A 11.28 11.12 7.8 0 1 348.18 609.57
  L 348.17 609.69
  A 11.28 11.12 7.8 0 1 335.48 619.17
  L 329.07 618.29
  A 0.77 0.77 0.0 0 1 328.41 617.43
  L 331.24 596.80
  Z
  M 334.01 599.90
  L 331.94 615.22
  A 0.57 0.57 0.0 0 0 332.43 615.86
  L 335.52 616.28
  A 8.27 8.06 7.7 0 0 344.79 609.40
  L 344.86 608.92
  A 8.27 8.06 7.7 0 0 337.74 599.83
  L 334.65 599.41
  A 0.57 0.57 0.0 0 0 334.01 599.90
  Z"
/>
<path fill="#feb81d" d="
  M 423.86 597.66
  A 0.69 0.69 0.0 0 1 424.36 596.83
  L 427.57 596.03
  A 4.66 4.40 -14.0 0 1 433.16 599.17
  L 433.24 599.50
  A 4.66 4.40 -14.0 0 1 429.79 604.89
  L 426.57 605.69
  A 0.69 0.69 0.0 0 1 425.74 605.19
  L 423.86 597.66
  Z"
/>
<path fill="#242115" d="
  M 400.81 611.15
  L 399.73 599.18
  A 1.20 1.20 0.0 0 1 400.82 597.88
  L 401.28 597.85
  Q 402.58 597.74 402.70 599.04
  L 404.57 619.48
  Q 404.64 620.30 404.06 619.71
  L 389.56 605.20
  Q 388.78 604.42 388.88 605.51
  L 390.22 620.28
  Q 390.32 621.38 389.22 621.47
  L 388.69 621.51
  Q 387.46 621.60 387.34 620.38
  Q 386.38 610.52 385.48 601.38
  Q 385.43 600.88 385.53 600.40
  A 1.81 1.81 0.0 0 1 388.60 599.49
  L 400.19 611.44
  Q 400.91 612.18 400.81 611.15
  Z"
/>
<path fill="#feb81d" d="
  M 334.01 599.90
  A 0.57 0.57 0.0 0 1 334.65 599.41
  L 337.74 599.83
  A 8.27 8.06 7.7 0 1 344.86 608.92
  L 344.79 609.40
  A 8.27 8.06 7.7 0 1 335.52 616.28
  L 332.43 615.86
  A 0.57 0.57 0.0 0 1 331.94 615.22
  L 334.01 599.90
  Z"
/>
<path fill="#242115" d="
  M 369.37 611.89
  L 369.42 618.13
  A 0.65 0.65 0.0 0 0 370.07 618.77
  L 378.67 618.65
  A 0.65 0.65 0.0 0 1 379.33 619.33
  L 379.25 621.30
  A 0.65 0.65 0.0 0 1 378.61 621.92
  L 366.79 622.00
  A 0.65 0.65 0.0 0 1 366.14 621.35
  L 366.09 600.35
  A 0.65 0.65 0.0 0 1 366.74 599.70
  L 378.41 599.75
  A 0.65 0.65 0.0 0 1 379.06 600.39
  L 379.07 602.08
  A 0.65 0.65 0.0 0 1 378.42 602.74
  L 370.00 602.74
  A 0.65 0.65 0.0 0 0 369.35 603.38
  L 369.31 607.55
  A 0.65 0.65 0.0 0 0 369.96 608.21
  L 377.99 608.23
  A 0.65 0.65 0.0 0 1 378.64 608.90
  L 378.59 610.56
  A 0.65 0.65 0.0 0 1 377.94 611.19
  L 370.02 611.24
  A 0.65 0.65 0.0 0 0 369.37 611.89
  Z"
/>
<path fill="#feb81d" d="
  M 311.77 605.39
  L 315.20 600.45
  A 0.32 0.32 0.0 0 1 315.78 600.59
  L 316.41 606.58
  A 0.32 0.32 0.0 0 1 316.01 606.92
  L 311.95 605.88
  A 0.32 0.32 0.0 0 1 311.77 605.39
  Z"
/>
</svg>
